%TF.GenerationSoftware,KiCad,Pcbnew,5.1.9+dfsg1-1+deb11u1*%
%TF.CreationDate,2024-10-07T21:35:42-04:00*%
%TF.ProjectId,mu-kb,6d752d6b-622e-46b6-9963-61645f706362,rev?*%
%TF.SameCoordinates,Original*%
%TF.FileFunction,Soldermask,Top*%
%TF.FilePolarity,Negative*%
%FSLAX46Y46*%
G04 Gerber Fmt 4.6, Leading zero omitted, Abs format (unit mm)*
G04 Created by KiCad (PCBNEW 5.1.9+dfsg1-1+deb11u1) date 2024-10-07 21:35:42*
%MOMM*%
%LPD*%
G01*
G04 APERTURE LIST*
%ADD10C,2.400000*%
%ADD11C,1.300000*%
%ADD12R,1.300000X1.300000*%
%ADD13R,1.500000X2.300000*%
%ADD14C,3.050000*%
%ADD15C,3.400000*%
%ADD16C,1.900000*%
%ADD17R,1.600000X1.600000*%
%ADD18C,1.600000*%
G04 APERTURE END LIST*
D10*
%TO.C,R_JTRX1*%
X172460000Y-98000000D03*
X171460000Y-116000000D03*
D11*
X170960000Y-111000000D03*
X173500000Y-112000000D03*
X170960000Y-113000000D03*
D12*
X173500000Y-114000000D03*
%TD*%
D10*
%TO.C,JTRX1*%
X121540000Y-116000000D03*
X122540000Y-98000000D03*
D11*
X123040000Y-103000000D03*
X120500000Y-102000000D03*
X123040000Y-101000000D03*
D12*
X120500000Y-100000000D03*
%TD*%
D13*
%TO.C,R_RSW1*%
X180500000Y-112350000D03*
X180500000Y-105650000D03*
%TD*%
D14*
%TO.C,R_SW1*%
X192500000Y-61100000D03*
X197500000Y-63200000D03*
D15*
X192500000Y-67000000D03*
D16*
X187000000Y-67000000D03*
X198000000Y-67000000D03*
D11*
X187280000Y-71200000D03*
%TD*%
D14*
%TO.C,R_SW2*%
X192500000Y-78100000D03*
X197500000Y-80200000D03*
D15*
X192500000Y-84000000D03*
D16*
X187000000Y-84000000D03*
X198000000Y-84000000D03*
D11*
X187280000Y-88200000D03*
%TD*%
%TO.C,R_SW3*%
X187280000Y-105200000D03*
D16*
X198000000Y-101000000D03*
X187000000Y-101000000D03*
D15*
X192500000Y-101000000D03*
D14*
X197500000Y-97200000D03*
X192500000Y-95100000D03*
%TD*%
%TO.C,R_SW4*%
X210500000Y-59100000D03*
X215500000Y-61200000D03*
D15*
X210500000Y-65000000D03*
D16*
X205000000Y-65000000D03*
X216000000Y-65000000D03*
D11*
X205280000Y-69200000D03*
%TD*%
%TO.C,R_SW5*%
X205280000Y-86200000D03*
D16*
X216000000Y-82000000D03*
X205000000Y-82000000D03*
D15*
X210500000Y-82000000D03*
D14*
X215500000Y-78200000D03*
X210500000Y-76100000D03*
%TD*%
%TO.C,R_SW6*%
X210500000Y-93100000D03*
X215500000Y-95200000D03*
D15*
X210500000Y-99000000D03*
D16*
X205000000Y-99000000D03*
X216000000Y-99000000D03*
D11*
X205280000Y-103200000D03*
%TD*%
D14*
%TO.C,R_SW7*%
X228500000Y-52100000D03*
X233500000Y-54200000D03*
D15*
X228500000Y-58000000D03*
D16*
X223000000Y-58000000D03*
X234000000Y-58000000D03*
D11*
X223280000Y-62200000D03*
%TD*%
%TO.C,R_SW8*%
X223280000Y-79200000D03*
D16*
X234000000Y-75000000D03*
X223000000Y-75000000D03*
D15*
X228500000Y-75000000D03*
D14*
X233500000Y-71200000D03*
X228500000Y-69100000D03*
%TD*%
%TO.C,R_SW9*%
X228500000Y-86100000D03*
X233500000Y-88200000D03*
D15*
X228500000Y-92000000D03*
D16*
X223000000Y-92000000D03*
X234000000Y-92000000D03*
D11*
X223280000Y-96200000D03*
%TD*%
D14*
%TO.C,R_SW10*%
X246500000Y-60100000D03*
X251500000Y-62200000D03*
D15*
X246500000Y-66000000D03*
D16*
X241000000Y-66000000D03*
X252000000Y-66000000D03*
D11*
X241280000Y-70200000D03*
%TD*%
%TO.C,R_SW11*%
X241280000Y-87200000D03*
D16*
X252000000Y-83000000D03*
X241000000Y-83000000D03*
D15*
X246500000Y-83000000D03*
D14*
X251500000Y-79200000D03*
X246500000Y-77100000D03*
%TD*%
%TO.C,R_SW12*%
X246500000Y-94100000D03*
X251500000Y-96200000D03*
D15*
X246500000Y-100000000D03*
D16*
X241000000Y-100000000D03*
X252000000Y-100000000D03*
D11*
X241280000Y-104200000D03*
%TD*%
%TO.C,R_SW13*%
X261525146Y-81706856D03*
D16*
X272570407Y-78457148D03*
X261612265Y-77498434D03*
D15*
X267091336Y-77977791D03*
D14*
X272403501Y-74628030D03*
X267605555Y-72100242D03*
%TD*%
%TO.C,R_SW14*%
X266123907Y-89035552D03*
X270921853Y-91563340D03*
D15*
X265609688Y-94913101D03*
D16*
X260130617Y-94433744D03*
X271088759Y-95392458D03*
D11*
X260043498Y-98642166D03*
%TD*%
%TO.C,R_SW15*%
X258561851Y-115577476D03*
D16*
X269607112Y-112327768D03*
X258648970Y-111369054D03*
D15*
X264128041Y-111848411D03*
D14*
X269440206Y-108498650D03*
X264642260Y-105970862D03*
%TD*%
%TO.C,R_SW16*%
X159828070Y-135328070D03*
X164848528Y-133277460D03*
D15*
X164000000Y-139500000D03*
D16*
X160110913Y-143389087D03*
X167889087Y-135610913D03*
D11*
X163278751Y-146160946D03*
%TD*%
%TO.C,R_SW17*%
X178079347Y-133247307D03*
D16*
X185263140Y-124250000D03*
X175736860Y-129750000D03*
D15*
X180500000Y-127000000D03*
D14*
X182930127Y-121209103D03*
X177550000Y-121890450D03*
%TD*%
%TO.C,R_SW18*%
X197972968Y-113301038D03*
X203346117Y-114035387D03*
D15*
X199500000Y-119000000D03*
D16*
X194187408Y-120423505D03*
X204812592Y-117576495D03*
D11*
X195544907Y-124407924D03*
%TD*%
D17*
%TO.C,R_U1*%
X164880000Y-66030000D03*
D18*
X164880000Y-68570000D03*
X164880000Y-71110000D03*
X164880000Y-73650000D03*
X164880000Y-76190000D03*
X164880000Y-78730000D03*
X164880000Y-81270000D03*
X164880000Y-83810000D03*
X164880000Y-86350000D03*
X164880000Y-88890000D03*
X164880000Y-91430000D03*
X164880000Y-93970000D03*
X180120000Y-93970000D03*
X180120000Y-91430000D03*
X180120000Y-88890000D03*
X180120000Y-86350000D03*
X180120000Y-83810000D03*
X180120000Y-81270000D03*
X180120000Y-78730000D03*
X180120000Y-76190000D03*
X180120000Y-73650000D03*
X180120000Y-71110000D03*
X180120000Y-68570000D03*
X180120000Y-66030000D03*
%TD*%
D13*
%TO.C,RSW1*%
X113500000Y-112350000D03*
X113500000Y-105650000D03*
%TD*%
D11*
%TO.C,SW1*%
X21982193Y-82791074D03*
D16*
X32295346Y-77672746D03*
X21337204Y-78631460D03*
D15*
X26816275Y-78152103D03*
D14*
X31466057Y-73930784D03*
X26302056Y-72274554D03*
%TD*%
D11*
%TO.C,SW2*%
X23463840Y-99726384D03*
D16*
X33776993Y-94608056D03*
X22818851Y-95566770D03*
D15*
X28297922Y-95087413D03*
D14*
X32947704Y-90866094D03*
X27783703Y-89209864D03*
%TD*%
%TO.C,SW3*%
X29265351Y-106145173D03*
X34429352Y-107801403D03*
D15*
X29779570Y-112022722D03*
D16*
X24300499Y-112502079D03*
X35258641Y-111543365D03*
D11*
X24945488Y-116661693D03*
%TD*%
%TO.C,SW4*%
X42280000Y-70200000D03*
D16*
X53000000Y-66000000D03*
X42000000Y-66000000D03*
D15*
X47500000Y-66000000D03*
D14*
X52500000Y-62200000D03*
X47500000Y-60100000D03*
%TD*%
%TO.C,SW5*%
X47500000Y-77100000D03*
X52500000Y-79200000D03*
D15*
X47500000Y-83000000D03*
D16*
X42000000Y-83000000D03*
X53000000Y-83000000D03*
D11*
X42280000Y-87200000D03*
%TD*%
%TO.C,SW6*%
X42280000Y-104200000D03*
D16*
X53000000Y-100000000D03*
X42000000Y-100000000D03*
D15*
X47500000Y-100000000D03*
D14*
X52500000Y-96200000D03*
X47500000Y-94100000D03*
%TD*%
%TO.C,SW7*%
X65500000Y-52100000D03*
X70500000Y-54200000D03*
D15*
X65500000Y-58000000D03*
D16*
X60000000Y-58000000D03*
X71000000Y-58000000D03*
D11*
X60280000Y-62200000D03*
%TD*%
%TO.C,SW8*%
X60280000Y-79200000D03*
D16*
X71000000Y-75000000D03*
X60000000Y-75000000D03*
D15*
X65500000Y-75000000D03*
D14*
X70500000Y-71200000D03*
X65500000Y-69100000D03*
%TD*%
D11*
%TO.C,SW9*%
X60280000Y-96200000D03*
D16*
X71000000Y-92000000D03*
X60000000Y-92000000D03*
D15*
X65500000Y-92000000D03*
D14*
X70500000Y-88200000D03*
X65500000Y-86100000D03*
%TD*%
D11*
%TO.C,SW10*%
X78280000Y-69200000D03*
D16*
X89000000Y-65000000D03*
X78000000Y-65000000D03*
D15*
X83500000Y-65000000D03*
D14*
X88500000Y-61200000D03*
X83500000Y-59100000D03*
%TD*%
%TO.C,SW11*%
X83500000Y-76100000D03*
X88500000Y-78200000D03*
D15*
X83500000Y-82000000D03*
D16*
X78000000Y-82000000D03*
X89000000Y-82000000D03*
D11*
X78280000Y-86200000D03*
%TD*%
D14*
%TO.C,SW12*%
X83500000Y-93100000D03*
X88500000Y-95200000D03*
D15*
X83500000Y-99000000D03*
D16*
X78000000Y-99000000D03*
X89000000Y-99000000D03*
D11*
X78280000Y-103200000D03*
%TD*%
D14*
%TO.C,SW13*%
X101500000Y-61100000D03*
X106500000Y-63200000D03*
D15*
X101500000Y-67000000D03*
D16*
X96000000Y-67000000D03*
X107000000Y-67000000D03*
D11*
X96280000Y-71200000D03*
%TD*%
%TO.C,SW14*%
X96280000Y-88200000D03*
D16*
X107000000Y-84000000D03*
X96000000Y-84000000D03*
D15*
X101500000Y-84000000D03*
D14*
X106500000Y-80200000D03*
X101500000Y-78100000D03*
%TD*%
%TO.C,SW15*%
X101500000Y-95100000D03*
X106500000Y-97200000D03*
D15*
X101500000Y-101000000D03*
D16*
X96000000Y-101000000D03*
X107000000Y-101000000D03*
D11*
X96280000Y-105200000D03*
%TD*%
%TO.C,SW16*%
X88370827Y-121705853D03*
D16*
X99812592Y-120423505D03*
X89187408Y-117576495D03*
D15*
X94500000Y-119000000D03*
D14*
X100313142Y-116623577D03*
X96027032Y-113301038D03*
%TD*%
%TO.C,SW17*%
X116450000Y-121890450D03*
X119730127Y-126209103D03*
D15*
X113500000Y-127000000D03*
D16*
X108736860Y-124250000D03*
X118263140Y-129750000D03*
D11*
X106879347Y-128027307D03*
%TD*%
%TO.C,SW18*%
X123339054Y-138778751D03*
D16*
X133889087Y-143389087D03*
X126110913Y-135610913D03*
D15*
X130000000Y-139500000D03*
D14*
X136222540Y-140348528D03*
X134171930Y-135328070D03*
%TD*%
D18*
%TO.C,U1*%
X129120000Y-66030000D03*
X129120000Y-68570000D03*
X129120000Y-71110000D03*
X129120000Y-73650000D03*
X129120000Y-76190000D03*
X129120000Y-78730000D03*
X129120000Y-81270000D03*
X129120000Y-83810000D03*
X129120000Y-86350000D03*
X129120000Y-88890000D03*
X129120000Y-91430000D03*
X129120000Y-93970000D03*
X113880000Y-93970000D03*
X113880000Y-91430000D03*
X113880000Y-88890000D03*
X113880000Y-86350000D03*
X113880000Y-83810000D03*
X113880000Y-81270000D03*
X113880000Y-78730000D03*
X113880000Y-76190000D03*
X113880000Y-73650000D03*
X113880000Y-71110000D03*
X113880000Y-68570000D03*
D17*
X113880000Y-66030000D03*
%TD*%
M02*
