%TF.GenerationSoftware,KiCad,Pcbnew,5.1.9+dfsg1-1+deb11u1*%
%TF.CreationDate,2024-10-07T21:35:42-04:00*%
%TF.ProjectId,mu-kb,6d752d6b-622e-46b6-9963-61645f706362,rev?*%
%TF.SameCoordinates,Original*%
%TF.FileFunction,Profile,NP*%
%FSLAX46Y46*%
G04 Gerber Fmt 4.6, Leading zero omitted, Abs format (unit mm)*
G04 Created by KiCad (PCBNEW 5.1.9+dfsg1-1+deb11u1) date 2024-10-07 21:35:42*
%MOMM*%
%LPD*%
G01*
G04 APERTURE LIST*
%TA.AperFunction,Profile*%
%ADD10C,0.050000*%
%TD*%
G04 APERTURE END LIST*
D10*
X216500000Y-55000000D02*
G75*
G03*
X218500000Y-53000000I0J2000000D01*
G01*
X258500000Y-65500000D02*
G75*
G03*
X260500000Y-67500000I2000000J0D01*
G01*
X230500000Y-121000000D02*
X254500000Y-121000000D01*
X162500000Y-64000000D02*
X162500000Y-127000000D01*
X162500000Y-127000000D02*
X150500000Y-139000000D01*
X230500000Y-121000000D02*
X194500000Y-131000000D01*
X175500000Y-142000000D02*
X194500000Y-131000000D01*
X258500000Y-58000000D02*
G75*
G03*
X256500000Y-56000000I-2000000J0D01*
G01*
X240500000Y-50000000D02*
G75*
G03*
X238500000Y-48000000I-2000000J0D01*
G01*
X256500000Y-56000000D02*
X242500000Y-56000000D01*
X240500000Y-54000000D02*
X240500000Y-50000000D01*
X238500000Y-48000000D02*
X220500000Y-48000000D01*
X218500000Y-50000000D02*
X218500000Y-53000000D01*
X216500000Y-55000000D02*
X202500000Y-55000000D01*
X164499999Y-153000001D02*
X175500000Y-142000000D01*
X150500000Y-142000000D02*
X161500000Y-153000000D01*
X161500000Y-153000000D02*
G75*
G03*
X164499999Y-153000001I1500000J1999999D01*
G01*
X150500000Y-139000000D02*
G75*
G03*
X150500000Y-142000000I2000000J-1500000D01*
G01*
X272491615Y-122478122D02*
X254500000Y-121000000D01*
X180500000Y-62000000D02*
X164500000Y-62000000D01*
X200500000Y-57000000D02*
G75*
G03*
X201500000Y-56000000I0J1000000D01*
G01*
X240500000Y-54000000D02*
G75*
G03*
X242500000Y-56000000I2000000J0D01*
G01*
X220500000Y-48000000D02*
G75*
G03*
X218500000Y-50000000I0J-2000000D01*
G01*
X202500000Y-55000000D02*
G75*
G03*
X201500000Y-56000000I0J-1000000D01*
G01*
X200500000Y-57000000D02*
X184500000Y-57000000D01*
X164500000Y-62000000D02*
G75*
G03*
X162500000Y-64000000I0J-2000000D01*
G01*
X180500000Y-62000000D02*
G75*
G03*
X182500000Y-60000000I0J2000000D01*
G01*
X184500000Y-57000000D02*
G75*
G03*
X182500000Y-59000000I0J-2000000D01*
G01*
X182500000Y-59000000D02*
X182500000Y-60000000D01*
X274500000Y-119999999D02*
X278500000Y-71899535D01*
X272491615Y-122478122D02*
G75*
G03*
X274500000Y-119999999I-1141614J2978122D01*
G01*
X275787736Y-68830001D02*
X260500000Y-67500000D01*
X258500000Y-65500000D02*
X258500000Y-58000000D01*
X278500000Y-71899536D02*
G75*
G03*
X275787736Y-68830001I-4027263J-825464D01*
G01*
X37500000Y-65500000D02*
G75*
G02*
X35500000Y-67500000I-2000000J0D01*
G01*
X37500000Y-58000000D02*
G75*
G02*
X39500000Y-56000000I2000000J0D01*
G01*
X55500000Y-54000000D02*
G75*
G02*
X53500000Y-56000000I-2000000J0D01*
G01*
X55500000Y-50000000D02*
G75*
G02*
X57500000Y-48000000I2000000J0D01*
G01*
X75500000Y-48000000D02*
G75*
G02*
X77500000Y-50000000I0J-2000000D01*
G01*
X79500000Y-55000000D02*
G75*
G02*
X77500000Y-53000000I0J2000000D01*
G01*
X91500000Y-55000000D02*
G75*
G02*
X92500000Y-56000000I0J-1000000D01*
G01*
X93500000Y-57000000D02*
G75*
G02*
X92500000Y-56000000I0J1000000D01*
G01*
X113500000Y-62000000D02*
X129500000Y-62000000D01*
X111500000Y-59000000D02*
X111500000Y-60000000D01*
X109500000Y-57000000D02*
G75*
G02*
X111500000Y-59000000I0J-2000000D01*
G01*
X113500000Y-62000000D02*
G75*
G02*
X111500000Y-60000000I0J2000000D01*
G01*
X129500000Y-62000000D02*
G75*
G02*
X131500000Y-64000000I0J-2000000D01*
G01*
X93500000Y-57000000D02*
X109500000Y-57000000D01*
X79500000Y-55000000D02*
X91500000Y-55000000D01*
X77500000Y-50000000D02*
X77500000Y-53000000D01*
X57500000Y-48000000D02*
X75500000Y-48000000D01*
X55500000Y-54000000D02*
X55500000Y-50000000D01*
X39500000Y-56000000D02*
X53500000Y-56000000D01*
X16397737Y-71899536D02*
G75*
G02*
X19110001Y-68830001I4027263J-825464D01*
G01*
X37500000Y-65500000D02*
X37500000Y-58000000D01*
X19110000Y-68830000D02*
X35500000Y-67500000D01*
X22508386Y-122478122D02*
G75*
G02*
X20500001Y-119999999I1141614J2978122D01*
G01*
X20500000Y-120000000D02*
X16400000Y-71900000D01*
X22508386Y-122478122D02*
X39500000Y-121000000D01*
X143500000Y-139000000D02*
G75*
G02*
X143500000Y-142000000I-2000000J-1500000D01*
G01*
X132499999Y-152999999D02*
G75*
G02*
X129500000Y-153000000I-1500000J1999999D01*
G01*
X143500000Y-142000000D02*
X132500000Y-153000000D01*
X129500000Y-153000000D02*
X118500000Y-142000000D01*
X118500000Y-142000000D02*
X99500000Y-131000000D01*
X63500000Y-121000000D02*
X99500000Y-131000000D01*
X131500000Y-127000000D02*
X143500000Y-139000000D01*
X131500000Y-64000000D02*
X131500000Y-127000000D01*
X63500000Y-121000000D02*
X39500000Y-121000000D01*
M02*
