%FSLAX45Y45*%
G04 Gerber Fmt 4.5, Leading zero omitted, Abs format (unit mm)*
G04 Created by KiCad (PCBNEW 5.1.9+dfsg1-1+deb11u1) date 2024-10-07 21:36:59*
%MOMM*%
%LPD*%
G01*
G04 APERTURE LIST*
%TA.AperFunction,Profile*%
%ADD10C,0.050000*%
%TD*%
%ADD11C,0.200000*%
%ADD12C,0.300000*%
G04 APERTURE END LIST*
D10*
X21650000Y-5500000D02*
G75*
G03*
X21850000Y-5300000I0J200000D01*
G01*
X25850000Y-6550000D02*
G75*
G03*
X26050000Y-6750000I200000J0D01*
G01*
X23050000Y-12100000D02*
X25450000Y-12100000D01*
X16250000Y-6400000D02*
X16250000Y-12700000D01*
X16250000Y-12700000D02*
X15050000Y-13900000D01*
X23050000Y-12100000D02*
X19450000Y-13100000D01*
X17550000Y-14200000D02*
X19450000Y-13100000D01*
X25850000Y-5800000D02*
G75*
G03*
X25650000Y-5600000I-200000J0D01*
G01*
X24050000Y-5000000D02*
G75*
G03*
X23850000Y-4800000I-200000J0D01*
G01*
X25650000Y-5600000D02*
X24250000Y-5600000D01*
X24050000Y-5400000D02*
X24050000Y-5000000D01*
X23850000Y-4800000D02*
X22050000Y-4800000D01*
X21850000Y-5000000D02*
X21850000Y-5300000D01*
X21650000Y-5500000D02*
X20250000Y-5500000D01*
X16450000Y-15300000D02*
X17550000Y-14200000D01*
X15050000Y-14200000D02*
X16150000Y-15300000D01*
X16150000Y-15300000D02*
G75*
G03*
X16450000Y-15300000I150000J200000D01*
G01*
X15050000Y-13900000D02*
G75*
G03*
X15050000Y-14200000I200000J-150000D01*
G01*
X27249161Y-12247812D02*
X25450000Y-12100000D01*
X18050000Y-6200000D02*
X16450000Y-6200000D01*
X20050000Y-5700000D02*
G75*
G03*
X20150000Y-5600000I0J100000D01*
G01*
X24050000Y-5400000D02*
G75*
G03*
X24250000Y-5600000I200000J0D01*
G01*
X22050000Y-4800000D02*
G75*
G03*
X21850000Y-5000000I0J-200000D01*
G01*
X20250000Y-5500000D02*
G75*
G03*
X20150000Y-5600000I0J-100000D01*
G01*
X20050000Y-5700000D02*
X18450000Y-5700000D01*
X16450000Y-6200000D02*
G75*
G03*
X16250000Y-6400000I0J-200000D01*
G01*
X18050000Y-6200000D02*
G75*
G03*
X18250000Y-6000000I0J200000D01*
G01*
X18450000Y-5700000D02*
G75*
G03*
X18250000Y-5900000I0J-200000D01*
G01*
X18250000Y-5900000D02*
X18250000Y-6000000D01*
X27450000Y-12000000D02*
X27850000Y-7189953D01*
X27249161Y-12247812D02*
G75*
G03*
X27450000Y-12000000I-114161J297812D01*
G01*
X27578774Y-6883000D02*
X26050000Y-6750000D01*
X25850000Y-6550000D02*
X25850000Y-5800000D01*
X27850000Y-7189954D02*
G75*
G03*
X27578774Y-6883000I-402726J-82546D01*
G01*
X3750000Y-6550000D02*
G75*
G02*
X3550000Y-6750000I-200000J0D01*
G01*
X3750000Y-5800000D02*
G75*
G02*
X3950000Y-5600000I200000J0D01*
G01*
X5550000Y-5400000D02*
G75*
G02*
X5350000Y-5600000I-200000J0D01*
G01*
X5550000Y-5000000D02*
G75*
G02*
X5750000Y-4800000I200000J0D01*
G01*
X7550000Y-4800000D02*
G75*
G02*
X7750000Y-5000000I0J-200000D01*
G01*
X7950000Y-5500000D02*
G75*
G02*
X7750000Y-5300000I0J200000D01*
G01*
X9150000Y-5500000D02*
G75*
G02*
X9250000Y-5600000I0J-100000D01*
G01*
X9350000Y-5700000D02*
G75*
G02*
X9250000Y-5600000I0J100000D01*
G01*
X11350000Y-6200000D02*
X12950000Y-6200000D01*
X11150000Y-5900000D02*
X11150000Y-6000000D01*
X10950000Y-5700000D02*
G75*
G02*
X11150000Y-5900000I0J-200000D01*
G01*
X11350000Y-6200000D02*
G75*
G02*
X11150000Y-6000000I0J200000D01*
G01*
X12950000Y-6200000D02*
G75*
G02*
X13150000Y-6400000I0J-200000D01*
G01*
X9350000Y-5700000D02*
X10950000Y-5700000D01*
X7950000Y-5500000D02*
X9150000Y-5500000D01*
X7750000Y-5000000D02*
X7750000Y-5300000D01*
X5750000Y-4800000D02*
X7550000Y-4800000D01*
X5550000Y-5400000D02*
X5550000Y-5000000D01*
X3950000Y-5600000D02*
X5350000Y-5600000D01*
X1639774Y-7189954D02*
G75*
G02*
X1911000Y-6883000I402726J-82546D01*
G01*
X3750000Y-6550000D02*
X3750000Y-5800000D01*
X1911000Y-6883000D02*
X3550000Y-6750000D01*
X2250839Y-12247812D02*
G75*
G02*
X2050000Y-12000000I114161J297812D01*
G01*
X2050000Y-12000000D02*
X1640000Y-7190000D01*
X2250839Y-12247812D02*
X3950000Y-12100000D01*
X14350000Y-13900000D02*
G75*
G02*
X14350000Y-14200000I-200000J-150000D01*
G01*
X13250000Y-15300000D02*
G75*
G02*
X12950000Y-15300000I-150000J200000D01*
G01*
X14350000Y-14200000D02*
X13250000Y-15300000D01*
X12950000Y-15300000D02*
X11850000Y-14200000D01*
X11850000Y-14200000D02*
X9950000Y-13100000D01*
X6350000Y-12100000D02*
X9950000Y-13100000D01*
X13150000Y-12700000D02*
X14350000Y-13900000D01*
X13150000Y-6400000D02*
X13150000Y-12700000D01*
X6350000Y-12100000D02*
X3950000Y-12100000D01*
D11*
X2133219Y-8214107D02*
X2263219Y-8344107D01*
X2263219Y-8214107D02*
X2133219Y-8344107D01*
X2281384Y-9907638D02*
X2411384Y-10037638D01*
X2411384Y-9907638D02*
X2281384Y-10037638D01*
X2429549Y-11601169D02*
X2559549Y-11731169D01*
X2559549Y-11601169D02*
X2429549Y-11731169D01*
X4163000Y-6955000D02*
X4293000Y-7085000D01*
X4293000Y-6955000D02*
X4163000Y-7085000D01*
X4163000Y-8655000D02*
X4293000Y-8785000D01*
X4293000Y-8655000D02*
X4163000Y-8785000D01*
X4163000Y-10355000D02*
X4293000Y-10485000D01*
X4293000Y-10355000D02*
X4163000Y-10485000D01*
X5963000Y-6155000D02*
X6093000Y-6285000D01*
X6093000Y-6155000D02*
X5963000Y-6285000D01*
X5963000Y-7855000D02*
X6093000Y-7985000D01*
X6093000Y-7855000D02*
X5963000Y-7985000D01*
X5963000Y-9555000D02*
X6093000Y-9685000D01*
X6093000Y-9555000D02*
X5963000Y-9685000D01*
X7763000Y-6855000D02*
X7893000Y-6985000D01*
X7893000Y-6855000D02*
X7763000Y-6985000D01*
X7763000Y-8555000D02*
X7893000Y-8685000D01*
X7893000Y-8555000D02*
X7763000Y-8685000D01*
X7763000Y-10255000D02*
X7893000Y-10385000D01*
X7893000Y-10255000D02*
X7763000Y-10385000D01*
X8772083Y-12105585D02*
X8902083Y-12235585D01*
X8902083Y-12105585D02*
X8772083Y-12235585D01*
X9563000Y-7055000D02*
X9693000Y-7185000D01*
X9693000Y-7055000D02*
X9563000Y-7185000D01*
X9563000Y-8755000D02*
X9693000Y-8885000D01*
X9693000Y-8755000D02*
X9563000Y-8885000D01*
X9563000Y-10455000D02*
X9693000Y-10585000D01*
X9693000Y-10455000D02*
X9563000Y-10585000D01*
X10622935Y-12737731D02*
X10752935Y-12867731D01*
X10752935Y-12737731D02*
X10622935Y-12867731D01*
X12268905Y-13812875D02*
X12398905Y-13942875D01*
X12398905Y-13812875D02*
X12268905Y-13942875D01*
X16262875Y-14551095D02*
X16392875Y-14681095D01*
X16392875Y-14551095D02*
X16262875Y-14681095D01*
X17742935Y-13259731D02*
X17872935Y-13389731D01*
X17872935Y-13259731D02*
X17742935Y-13389731D01*
X18663000Y-7055000D02*
X18793000Y-7185000D01*
X18793000Y-7055000D02*
X18663000Y-7185000D01*
X18663000Y-8755000D02*
X18793000Y-8885000D01*
X18793000Y-8755000D02*
X18663000Y-8885000D01*
X18663000Y-10455000D02*
X18793000Y-10585000D01*
X18793000Y-10455000D02*
X18663000Y-10585000D01*
X19489491Y-12375792D02*
X19619491Y-12505792D01*
X19619491Y-12375792D02*
X19489491Y-12505792D01*
X20463000Y-6855000D02*
X20593000Y-6985000D01*
X20593000Y-6855000D02*
X20463000Y-6985000D01*
X20463000Y-8555000D02*
X20593000Y-8685000D01*
X20593000Y-8555000D02*
X20463000Y-8685000D01*
X20463000Y-10255000D02*
X20593000Y-10385000D01*
X20593000Y-10255000D02*
X20463000Y-10385000D01*
X22263000Y-6155000D02*
X22393000Y-6285000D01*
X22393000Y-6155000D02*
X22263000Y-6285000D01*
X22263000Y-7855000D02*
X22393000Y-7985000D01*
X22393000Y-7855000D02*
X22263000Y-7985000D01*
X22263000Y-9555000D02*
X22393000Y-9685000D01*
X22393000Y-9555000D02*
X22263000Y-9685000D01*
X24063000Y-6955000D02*
X24193000Y-7085000D01*
X24193000Y-6955000D02*
X24063000Y-7085000D01*
X24063000Y-8655000D02*
X24193000Y-8785000D01*
X24193000Y-8655000D02*
X24063000Y-8785000D01*
X24063000Y-10355000D02*
X24193000Y-10485000D01*
X24193000Y-10355000D02*
X24063000Y-10485000D01*
X25791185Y-11492748D02*
X25921185Y-11622748D01*
X25921185Y-11492748D02*
X25791185Y-11622748D01*
X25939350Y-9799217D02*
X26069350Y-9929217D01*
X26069350Y-9799217D02*
X25939350Y-9929217D01*
X26087515Y-8105686D02*
X26217515Y-8235686D01*
X26217515Y-8105686D02*
X26087515Y-8235686D01*
X2228720Y-7863146D02*
G75*
G03*
X2228720Y-7863146I-95000J0D01*
G01*
X2376885Y-9556677D02*
G75*
G03*
X2376885Y-9556677I-95000J0D01*
G01*
X2525050Y-11250208D02*
G75*
G03*
X2525050Y-11250208I-95000J0D01*
G01*
X3324535Y-7767275D02*
G75*
G03*
X3324535Y-7767275I-95000J0D01*
G01*
X3472699Y-9460806D02*
G75*
G03*
X3472699Y-9460806I-95000J0D01*
G01*
X3620864Y-11154337D02*
G75*
G03*
X3620864Y-11154337I-95000J0D01*
G01*
X4295000Y-6600000D02*
G75*
G03*
X4295000Y-6600000I-95000J0D01*
G01*
X4295000Y-8300000D02*
G75*
G03*
X4295000Y-8300000I-95000J0D01*
G01*
X4295000Y-10000000D02*
G75*
G03*
X4295000Y-10000000I-95000J0D01*
G01*
X5395000Y-6600000D02*
G75*
G03*
X5395000Y-6600000I-95000J0D01*
G01*
X5395000Y-8300000D02*
G75*
G03*
X5395000Y-8300000I-95000J0D01*
G01*
X5395000Y-10000000D02*
G75*
G03*
X5395000Y-10000000I-95000J0D01*
G01*
X6095000Y-5800000D02*
G75*
G03*
X6095000Y-5800000I-95000J0D01*
G01*
X6095000Y-7500000D02*
G75*
G03*
X6095000Y-7500000I-95000J0D01*
G01*
X6095000Y-9200000D02*
G75*
G03*
X6095000Y-9200000I-95000J0D01*
G01*
X7195000Y-5800000D02*
G75*
G03*
X7195000Y-5800000I-95000J0D01*
G01*
X7195000Y-7500000D02*
G75*
G03*
X7195000Y-7500000I-95000J0D01*
G01*
X7195000Y-9200000D02*
G75*
G03*
X7195000Y-9200000I-95000J0D01*
G01*
X7895000Y-6500000D02*
G75*
G03*
X7895000Y-6500000I-95000J0D01*
G01*
X7895000Y-8200000D02*
G75*
G03*
X7895000Y-8200000I-95000J0D01*
G01*
X7895000Y-9900000D02*
G75*
G03*
X7895000Y-9900000I-95000J0D01*
G01*
X8995000Y-6500000D02*
G75*
G03*
X8995000Y-6500000I-95000J0D01*
G01*
X8995000Y-8200000D02*
G75*
G03*
X8995000Y-8200000I-95000J0D01*
G01*
X8995000Y-9900000D02*
G75*
G03*
X8995000Y-9900000I-95000J0D01*
G01*
X9013741Y-11757649D02*
G75*
G03*
X9013741Y-11757649I-95000J0D01*
G01*
X9695000Y-6700000D02*
G75*
G03*
X9695000Y-6700000I-95000J0D01*
G01*
X9695000Y-8400000D02*
G75*
G03*
X9695000Y-8400000I-95000J0D01*
G01*
X9695000Y-10100000D02*
G75*
G03*
X9695000Y-10100000I-95000J0D01*
G01*
X10076259Y-12042350D02*
G75*
G03*
X10076259Y-12042350I-95000J0D01*
G01*
X10795000Y-6700000D02*
G75*
G03*
X10795000Y-6700000I-95000J0D01*
G01*
X10795000Y-8400000D02*
G75*
G03*
X10795000Y-8400000I-95000J0D01*
G01*
X10795000Y-10100000D02*
G75*
G03*
X10795000Y-10100000I-95000J0D01*
G01*
X10968686Y-12425000D02*
G75*
G03*
X10968686Y-12425000I-95000J0D01*
G01*
X11921314Y-12975000D02*
G75*
G03*
X11921314Y-12975000I-95000J0D01*
G01*
X12706091Y-13561091D02*
G75*
G03*
X12706091Y-13561091I-95000J0D01*
G01*
X13483909Y-14338909D02*
G75*
G03*
X13483909Y-14338909I-95000J0D01*
G01*
X16106091Y-14338909D02*
G75*
G03*
X16106091Y-14338909I-95000J0D01*
G01*
X16883909Y-13561091D02*
G75*
G03*
X16883909Y-13561091I-95000J0D01*
G01*
X17668686Y-12975000D02*
G75*
G03*
X17668686Y-12975000I-95000J0D01*
G01*
X18621314Y-12425000D02*
G75*
G03*
X18621314Y-12425000I-95000J0D01*
G01*
X18795000Y-6700000D02*
G75*
G03*
X18795000Y-6700000I-95000J0D01*
G01*
X18795000Y-8400000D02*
G75*
G03*
X18795000Y-8400000I-95000J0D01*
G01*
X18795000Y-10100000D02*
G75*
G03*
X18795000Y-10100000I-95000J0D01*
G01*
X19513741Y-12042350D02*
G75*
G03*
X19513741Y-12042350I-95000J0D01*
G01*
X19895000Y-6700000D02*
G75*
G03*
X19895000Y-6700000I-95000J0D01*
G01*
X19895000Y-8400000D02*
G75*
G03*
X19895000Y-8400000I-95000J0D01*
G01*
X19895000Y-10100000D02*
G75*
G03*
X19895000Y-10100000I-95000J0D01*
G01*
X20576259Y-11757649D02*
G75*
G03*
X20576259Y-11757649I-95000J0D01*
G01*
X20595000Y-6500000D02*
G75*
G03*
X20595000Y-6500000I-95000J0D01*
G01*
X20595000Y-8200000D02*
G75*
G03*
X20595000Y-8200000I-95000J0D01*
G01*
X20595000Y-9900000D02*
G75*
G03*
X20595000Y-9900000I-95000J0D01*
G01*
X21695000Y-6500000D02*
G75*
G03*
X21695000Y-6500000I-95000J0D01*
G01*
X21695000Y-8200000D02*
G75*
G03*
X21695000Y-8200000I-95000J0D01*
G01*
X21695000Y-9900000D02*
G75*
G03*
X21695000Y-9900000I-95000J0D01*
G01*
X22395000Y-5800000D02*
G75*
G03*
X22395000Y-5800000I-95000J0D01*
G01*
X22395000Y-7500000D02*
G75*
G03*
X22395000Y-7500000I-95000J0D01*
G01*
X22395000Y-9200000D02*
G75*
G03*
X22395000Y-9200000I-95000J0D01*
G01*
X23495000Y-5800000D02*
G75*
G03*
X23495000Y-5800000I-95000J0D01*
G01*
X23495000Y-7500000D02*
G75*
G03*
X23495000Y-7500000I-95000J0D01*
G01*
X23495000Y-9200000D02*
G75*
G03*
X23495000Y-9200000I-95000J0D01*
G01*
X24195000Y-6600000D02*
G75*
G03*
X24195000Y-6600000I-95000J0D01*
G01*
X24195000Y-8300000D02*
G75*
G03*
X24195000Y-8300000I-95000J0D01*
G01*
X24195000Y-10000000D02*
G75*
G03*
X24195000Y-10000000I-95000J0D01*
G01*
X25295000Y-6600000D02*
G75*
G03*
X25295000Y-6600000I-95000J0D01*
G01*
X25295000Y-8300000D02*
G75*
G03*
X25295000Y-8300000I-95000J0D01*
G01*
X25295000Y-10000000D02*
G75*
G03*
X25295000Y-10000000I-95000J0D01*
G01*
X25959897Y-11136905D02*
G75*
G03*
X25959897Y-11136905I-95000J0D01*
G01*
X26108062Y-9443374D02*
G75*
G03*
X26108062Y-9443374I-95000J0D01*
G01*
X26256226Y-7749843D02*
G75*
G03*
X26256226Y-7749843I-95000J0D01*
G01*
X27055711Y-11232777D02*
G75*
G03*
X27055711Y-11232777I-95000J0D01*
G01*
X27203876Y-9539246D02*
G75*
G03*
X27203876Y-9539246I-95000J0D01*
G01*
X27352041Y-7845715D02*
G75*
G03*
X27352041Y-7845715I-95000J0D01*
G01*
X12154000Y-11480000D02*
X12154000Y-11720000D01*
X12034000Y-11600000D02*
X12274000Y-11600000D01*
X12254000Y-9680000D02*
X12254000Y-9920000D01*
X12134000Y-9800000D02*
X12374000Y-9800000D01*
X17146000Y-11480000D02*
X17146000Y-11720000D01*
X17026000Y-11600000D02*
X17266000Y-11600000D01*
X17246000Y-9680000D02*
X17246000Y-9920000D01*
X17126000Y-9800000D02*
X17366000Y-9800000D01*
X2738040Y-7335290D02*
X2738040Y-7119621D01*
X2522371Y-7119621D01*
X2522371Y-7335290D01*
X2738040Y-7335290D01*
X2886205Y-9028821D02*
X2886205Y-8813152D01*
X2670536Y-8813152D01*
X2670536Y-9028821D01*
X2886205Y-9028821D01*
X3034370Y-10722352D02*
X3034370Y-10506683D01*
X2818700Y-10506683D01*
X2818700Y-10722352D01*
X3034370Y-10722352D01*
X3254440Y-7500913D02*
X3254440Y-7285244D01*
X3038771Y-7285244D01*
X3038771Y-7500913D01*
X3254440Y-7500913D01*
X3402605Y-9194444D02*
X3402605Y-8978775D01*
X3186936Y-8978775D01*
X3186936Y-9194444D01*
X3402605Y-9194444D01*
X3550770Y-10887975D02*
X3550770Y-10672306D01*
X3335100Y-10672306D01*
X3335100Y-10887975D01*
X3550770Y-10887975D01*
X4857835Y-6117835D02*
X4857835Y-5902165D01*
X4642165Y-5902165D01*
X4642165Y-6117835D01*
X4857835Y-6117835D01*
X4857835Y-7817835D02*
X4857835Y-7602165D01*
X4642165Y-7602165D01*
X4642165Y-7817835D01*
X4857835Y-7817835D01*
X4857835Y-9517835D02*
X4857835Y-9302165D01*
X4642165Y-9302165D01*
X4642165Y-9517835D01*
X4857835Y-9517835D01*
X5357835Y-6327835D02*
X5357835Y-6112165D01*
X5142165Y-6112165D01*
X5142165Y-6327835D01*
X5357835Y-6327835D01*
X5357835Y-8027835D02*
X5357835Y-7812165D01*
X5142165Y-7812165D01*
X5142165Y-8027835D01*
X5357835Y-8027835D01*
X5357835Y-9727835D02*
X5357835Y-9512165D01*
X5142165Y-9512165D01*
X5142165Y-9727835D01*
X5357835Y-9727835D01*
X6657835Y-5317835D02*
X6657835Y-5102165D01*
X6442165Y-5102165D01*
X6442165Y-5317835D01*
X6657835Y-5317835D01*
X6657835Y-7017835D02*
X6657835Y-6802165D01*
X6442165Y-6802165D01*
X6442165Y-7017835D01*
X6657835Y-7017835D01*
X6657835Y-8717835D02*
X6657835Y-8502165D01*
X6442165Y-8502165D01*
X6442165Y-8717835D01*
X6657835Y-8717835D01*
X7157835Y-5527835D02*
X7157835Y-5312165D01*
X6942165Y-5312165D01*
X6942165Y-5527835D01*
X7157835Y-5527835D01*
X7157835Y-7227835D02*
X7157835Y-7012165D01*
X6942165Y-7012165D01*
X6942165Y-7227835D01*
X7157835Y-7227835D01*
X7157835Y-8927835D02*
X7157835Y-8712165D01*
X6942165Y-8712165D01*
X6942165Y-8927835D01*
X7157835Y-8927835D01*
X8457835Y-6017835D02*
X8457835Y-5802165D01*
X8242165Y-5802165D01*
X8242165Y-6017835D01*
X8457835Y-6017835D01*
X8457835Y-7717835D02*
X8457835Y-7502165D01*
X8242165Y-7502165D01*
X8242165Y-7717835D01*
X8457835Y-7717835D01*
X8457835Y-9417835D02*
X8457835Y-9202165D01*
X8242165Y-9202165D01*
X8242165Y-9417835D01*
X8457835Y-9417835D01*
X8957835Y-6227835D02*
X8957835Y-6012165D01*
X8742165Y-6012165D01*
X8742165Y-6227835D01*
X8957835Y-6227835D01*
X8957835Y-7927835D02*
X8957835Y-7712165D01*
X8742165Y-7712165D01*
X8742165Y-7927835D01*
X8957835Y-7927835D01*
X8957835Y-9627835D02*
X8957835Y-9412165D01*
X8742165Y-9412165D01*
X8742165Y-9627835D01*
X8957835Y-9627835D01*
X9710538Y-11437939D02*
X9710538Y-11222269D01*
X9494868Y-11222269D01*
X9494868Y-11437939D01*
X9710538Y-11437939D01*
X10139149Y-11770192D02*
X10139149Y-11554523D01*
X9923479Y-11554523D01*
X9923479Y-11770192D01*
X10139149Y-11770192D01*
X10257835Y-6217835D02*
X10257835Y-6002165D01*
X10042165Y-6002165D01*
X10042165Y-6217835D01*
X10257835Y-6217835D01*
X10257835Y-7917835D02*
X10257835Y-7702165D01*
X10042165Y-7702165D01*
X10042165Y-7917835D01*
X10257835Y-7917835D01*
X10257835Y-9617835D02*
X10257835Y-9402165D01*
X10042165Y-9402165D01*
X10042165Y-9617835D01*
X10257835Y-9617835D01*
X10757835Y-6427835D02*
X10757835Y-6212165D01*
X10542165Y-6212165D01*
X10542165Y-6427835D01*
X10757835Y-6427835D01*
X10757835Y-8127835D02*
X10757835Y-7912165D01*
X10542165Y-7912165D01*
X10542165Y-8127835D01*
X10757835Y-8127835D01*
X10757835Y-9827835D02*
X10757835Y-9612165D01*
X10542165Y-9612165D01*
X10542165Y-9827835D01*
X10757835Y-9827835D01*
X11752835Y-12296880D02*
X11752835Y-12081210D01*
X11537165Y-12081210D01*
X11537165Y-12296880D01*
X11752835Y-12296880D01*
X12080847Y-12728745D02*
X12080847Y-12513075D01*
X11865178Y-12513075D01*
X11865178Y-12728745D01*
X12080847Y-12728745D01*
X13525028Y-13640642D02*
X13525028Y-13424972D01*
X13309358Y-13424972D01*
X13309358Y-13640642D01*
X13525028Y-13640642D01*
X13730089Y-14142688D02*
X13730089Y-13927018D01*
X13514419Y-13927018D01*
X13514419Y-14142688D01*
X13730089Y-14142688D01*
X16090642Y-13640642D02*
X16090642Y-13424972D01*
X15874972Y-13424972D01*
X15874972Y-13640642D01*
X16090642Y-13640642D01*
X16592688Y-13435581D02*
X16592688Y-13219911D01*
X16377018Y-13219911D01*
X16377018Y-13435581D01*
X16592688Y-13435581D01*
X17862835Y-12296880D02*
X17862835Y-12081210D01*
X17647165Y-12081210D01*
X17647165Y-12296880D01*
X17862835Y-12296880D01*
X18400848Y-12228745D02*
X18400848Y-12013075D01*
X18185178Y-12013075D01*
X18185178Y-12228745D01*
X18400848Y-12228745D01*
X19357835Y-6217835D02*
X19357835Y-6002165D01*
X19142165Y-6002165D01*
X19142165Y-6217835D01*
X19357835Y-6217835D01*
X19357835Y-7917835D02*
X19357835Y-7702165D01*
X19142165Y-7702165D01*
X19142165Y-7917835D01*
X19357835Y-7917835D01*
X19357835Y-9617835D02*
X19357835Y-9402165D01*
X19142165Y-9402165D01*
X19142165Y-9617835D01*
X19357835Y-9617835D01*
X19857835Y-6427835D02*
X19857835Y-6212165D01*
X19642165Y-6212165D01*
X19642165Y-6427835D01*
X19857835Y-6427835D01*
X19857835Y-8127835D02*
X19857835Y-7912165D01*
X19642165Y-7912165D01*
X19642165Y-8127835D01*
X19857835Y-8127835D01*
X19857835Y-9827835D02*
X19857835Y-9612165D01*
X19642165Y-9612165D01*
X19642165Y-9827835D01*
X19857835Y-9827835D01*
X19905132Y-11437939D02*
X19905132Y-11222269D01*
X19689462Y-11222269D01*
X19689462Y-11437939D01*
X19905132Y-11437939D01*
X20442447Y-11511373D02*
X20442447Y-11295704D01*
X20226777Y-11295704D01*
X20226777Y-11511373D01*
X20442447Y-11511373D01*
X21157835Y-6017835D02*
X21157835Y-5802165D01*
X20942165Y-5802165D01*
X20942165Y-6017835D01*
X21157835Y-6017835D01*
X21157835Y-7717835D02*
X21157835Y-7502165D01*
X20942165Y-7502165D01*
X20942165Y-7717835D01*
X21157835Y-7717835D01*
X21157835Y-9417835D02*
X21157835Y-9202165D01*
X20942165Y-9202165D01*
X20942165Y-9417835D01*
X21157835Y-9417835D01*
X21657835Y-6227835D02*
X21657835Y-6012165D01*
X21442165Y-6012165D01*
X21442165Y-6227835D01*
X21657835Y-6227835D01*
X21657835Y-7927835D02*
X21657835Y-7712165D01*
X21442165Y-7712165D01*
X21442165Y-7927835D01*
X21657835Y-7927835D01*
X21657835Y-9627835D02*
X21657835Y-9412165D01*
X21442165Y-9412165D01*
X21442165Y-9627835D01*
X21657835Y-9627835D01*
X22957835Y-5317835D02*
X22957835Y-5102165D01*
X22742165Y-5102165D01*
X22742165Y-5317835D01*
X22957835Y-5317835D01*
X22957835Y-7017835D02*
X22957835Y-6802165D01*
X22742165Y-6802165D01*
X22742165Y-7017835D01*
X22957835Y-7017835D01*
X22957835Y-8717835D02*
X22957835Y-8502165D01*
X22742165Y-8502165D01*
X22742165Y-8717835D01*
X22957835Y-8717835D01*
X23457835Y-5527835D02*
X23457835Y-5312165D01*
X23242165Y-5312165D01*
X23242165Y-5527835D01*
X23457835Y-5527835D01*
X23457835Y-7227835D02*
X23457835Y-7012165D01*
X23242165Y-7012165D01*
X23242165Y-7227835D01*
X23457835Y-7227835D01*
X23457835Y-8927835D02*
X23457835Y-8712165D01*
X23242165Y-8712165D01*
X23242165Y-8927835D01*
X23457835Y-8927835D01*
X24757835Y-6117835D02*
X24757835Y-5902165D01*
X24542165Y-5902165D01*
X24542165Y-6117835D01*
X24757835Y-6117835D01*
X24757835Y-7817835D02*
X24757835Y-7602165D01*
X24542165Y-7602165D01*
X24542165Y-7817835D01*
X24757835Y-7817835D01*
X24757835Y-9517835D02*
X24757835Y-9302165D01*
X24542165Y-9302165D01*
X24542165Y-9517835D01*
X24757835Y-9517835D01*
X25257835Y-6327835D02*
X25257835Y-6112165D01*
X25042165Y-6112165D01*
X25042165Y-6327835D01*
X25257835Y-6327835D01*
X25257835Y-8027835D02*
X25257835Y-7812165D01*
X25042165Y-7812165D01*
X25042165Y-8027835D01*
X25257835Y-8027835D01*
X25257835Y-9727835D02*
X25257835Y-9512165D01*
X25042165Y-9512165D01*
X25042165Y-9727835D01*
X25257835Y-9727835D01*
X26572061Y-10704921D02*
X26572061Y-10489251D01*
X26356391Y-10489251D01*
X26356391Y-10704921D01*
X26572061Y-10704921D01*
X26720225Y-9011390D02*
X26720225Y-8795720D01*
X26504556Y-8795720D01*
X26504556Y-9011390D01*
X26720225Y-9011390D01*
X26868390Y-7317859D02*
X26868390Y-7102189D01*
X26652721Y-7102189D01*
X26652721Y-7317859D01*
X26868390Y-7317859D01*
X27051855Y-10957700D02*
X27051855Y-10742030D01*
X26836186Y-10742030D01*
X26836186Y-10957700D01*
X27051855Y-10957700D01*
X27200020Y-9264169D02*
X27200020Y-9048499D01*
X26984350Y-9048499D01*
X26984350Y-9264169D01*
X27200020Y-9264169D01*
X27348185Y-7570638D02*
X27348185Y-7354968D01*
X27132515Y-7354968D01*
X27132515Y-7570638D01*
X27348185Y-7570638D01*
X2681628Y-7985210D02*
X2851627Y-7815210D01*
X2681628Y-7645210D01*
X2511628Y-7815210D01*
X2681628Y-7985210D01*
X2829792Y-9678741D02*
X2999792Y-9508741D01*
X2829792Y-9338741D01*
X2659792Y-9508741D01*
X2829792Y-9678741D01*
X2977957Y-11372272D02*
X3147957Y-11202272D01*
X2977957Y-11032272D01*
X2807957Y-11202272D01*
X2977957Y-11372272D01*
X4750000Y-6770000D02*
X4920000Y-6600000D01*
X4750000Y-6430000D01*
X4580000Y-6600000D01*
X4750000Y-6770000D01*
X4750000Y-8470000D02*
X4920000Y-8300000D01*
X4750000Y-8130000D01*
X4580000Y-8300000D01*
X4750000Y-8470000D01*
X4750000Y-10170000D02*
X4920000Y-10000000D01*
X4750000Y-9830000D01*
X4580000Y-10000000D01*
X4750000Y-10170000D01*
X6550000Y-5970000D02*
X6720000Y-5800000D01*
X6550000Y-5630000D01*
X6380000Y-5800000D01*
X6550000Y-5970000D01*
X6550000Y-7670000D02*
X6720000Y-7500000D01*
X6550000Y-7330000D01*
X6380000Y-7500000D01*
X6550000Y-7670000D01*
X6550000Y-9370000D02*
X6720000Y-9200000D01*
X6550000Y-9030000D01*
X6380000Y-9200000D01*
X6550000Y-9370000D01*
X8350000Y-6670000D02*
X8520000Y-6500000D01*
X8350000Y-6330000D01*
X8180000Y-6500000D01*
X8350000Y-6670000D01*
X8350000Y-8370000D02*
X8520000Y-8200000D01*
X8350000Y-8030000D01*
X8180000Y-8200000D01*
X8350000Y-8370000D01*
X8350000Y-10070000D02*
X8520000Y-9900000D01*
X8350000Y-9730000D01*
X8180000Y-9900000D01*
X8350000Y-10070000D01*
X9450000Y-12070000D02*
X9620000Y-11900000D01*
X9450000Y-11730000D01*
X9280000Y-11900000D01*
X9450000Y-12070000D01*
X10150000Y-6870000D02*
X10320000Y-6700000D01*
X10150000Y-6530000D01*
X9980000Y-6700000D01*
X10150000Y-6870000D01*
X10150000Y-8570000D02*
X10320000Y-8400000D01*
X10150000Y-8230000D01*
X9980000Y-8400000D01*
X10150000Y-8570000D01*
X10150000Y-10270000D02*
X10320000Y-10100000D01*
X10150000Y-9930000D01*
X9980000Y-10100000D01*
X10150000Y-10270000D01*
X11350000Y-12870000D02*
X11520000Y-12700000D01*
X11350000Y-12530000D01*
X11180000Y-12700000D01*
X11350000Y-12870000D01*
X13000000Y-14120000D02*
X13170000Y-13950000D01*
X13000000Y-13780000D01*
X12830000Y-13950000D01*
X13000000Y-14120000D01*
X16400000Y-14120000D02*
X16570000Y-13950000D01*
X16400000Y-13780000D01*
X16230000Y-13950000D01*
X16400000Y-14120000D01*
X18050000Y-12870000D02*
X18220000Y-12700000D01*
X18050000Y-12530000D01*
X17880000Y-12700000D01*
X18050000Y-12870000D01*
X19250000Y-6870000D02*
X19420000Y-6700000D01*
X19250000Y-6530000D01*
X19080000Y-6700000D01*
X19250000Y-6870000D01*
X19250000Y-8570000D02*
X19420000Y-8400000D01*
X19250000Y-8230000D01*
X19080000Y-8400000D01*
X19250000Y-8570000D01*
X19250000Y-10270000D02*
X19420000Y-10100000D01*
X19250000Y-9930000D01*
X19080000Y-10100000D01*
X19250000Y-10270000D01*
X19950000Y-12070000D02*
X20120000Y-11900000D01*
X19950000Y-11730000D01*
X19780000Y-11900000D01*
X19950000Y-12070000D01*
X21050000Y-6670000D02*
X21220000Y-6500000D01*
X21050000Y-6330000D01*
X20880000Y-6500000D01*
X21050000Y-6670000D01*
X21050000Y-8370000D02*
X21220000Y-8200000D01*
X21050000Y-8030000D01*
X20880000Y-8200000D01*
X21050000Y-8370000D01*
X21050000Y-10070000D02*
X21220000Y-9900000D01*
X21050000Y-9730000D01*
X20880000Y-9900000D01*
X21050000Y-10070000D01*
X22850000Y-5970000D02*
X23020000Y-5800000D01*
X22850000Y-5630000D01*
X22680000Y-5800000D01*
X22850000Y-5970000D01*
X22850000Y-7670000D02*
X23020000Y-7500000D01*
X22850000Y-7330000D01*
X22680000Y-7500000D01*
X22850000Y-7670000D01*
X22850000Y-9370000D02*
X23020000Y-9200000D01*
X22850000Y-9030000D01*
X22680000Y-9200000D01*
X22850000Y-9370000D01*
X24650000Y-6770000D02*
X24820000Y-6600000D01*
X24650000Y-6430000D01*
X24480000Y-6600000D01*
X24650000Y-6770000D01*
X24650000Y-8470000D02*
X24820000Y-8300000D01*
X24650000Y-8130000D01*
X24480000Y-8300000D01*
X24650000Y-8470000D01*
X24650000Y-10170000D02*
X24820000Y-10000000D01*
X24650000Y-9830000D01*
X24480000Y-10000000D01*
X24650000Y-10170000D01*
X26412804Y-11354841D02*
X26582804Y-11184841D01*
X26412804Y-11014841D01*
X26242804Y-11184841D01*
X26412804Y-11354841D01*
X26560969Y-9661310D02*
X26730969Y-9491310D01*
X26560969Y-9321310D01*
X26390969Y-9491310D01*
X26560969Y-9661310D01*
X26709134Y-7967779D02*
X26879134Y-7797779D01*
X26709134Y-7627779D01*
X26539134Y-7797779D01*
X26709134Y-7967779D01*
D12*
X1923702Y-15818214D02*
X1923702Y-15518214D01*
X1995131Y-15518214D01*
X2037988Y-15532500D01*
X2066559Y-15561071D01*
X2080845Y-15589643D01*
X2095131Y-15646786D01*
X2095131Y-15689643D01*
X2080845Y-15746786D01*
X2066559Y-15775357D01*
X2037988Y-15803929D01*
X1995131Y-15818214D01*
X1923702Y-15818214D01*
X2223702Y-15818214D02*
X2223702Y-15618214D01*
X2223702Y-15675357D02*
X2237988Y-15646786D01*
X2252274Y-15632500D01*
X2280845Y-15618214D01*
X2309416Y-15618214D01*
X2409416Y-15818214D02*
X2409416Y-15618214D01*
X2409416Y-15518214D02*
X2395131Y-15532500D01*
X2409416Y-15546786D01*
X2423702Y-15532500D01*
X2409416Y-15518214D01*
X2409416Y-15546786D01*
X2595131Y-15818214D02*
X2566559Y-15803929D01*
X2552274Y-15775357D01*
X2552274Y-15518214D01*
X2752274Y-15818214D02*
X2723702Y-15803929D01*
X2709416Y-15775357D01*
X2709416Y-15518214D01*
X3095131Y-15818214D02*
X3095131Y-15518214D01*
X3195131Y-15732500D01*
X3295131Y-15518214D01*
X3295131Y-15818214D01*
X3566559Y-15818214D02*
X3566559Y-15661071D01*
X3552274Y-15632500D01*
X3523702Y-15618214D01*
X3466559Y-15618214D01*
X3437988Y-15632500D01*
X3566559Y-15803929D02*
X3537988Y-15818214D01*
X3466559Y-15818214D01*
X3437988Y-15803929D01*
X3423702Y-15775357D01*
X3423702Y-15746786D01*
X3437988Y-15718214D01*
X3466559Y-15703929D01*
X3537988Y-15703929D01*
X3566559Y-15689643D01*
X3709416Y-15618214D02*
X3709416Y-15918214D01*
X3709416Y-15632500D02*
X3737988Y-15618214D01*
X3795131Y-15618214D01*
X3823702Y-15632500D01*
X3837988Y-15646786D01*
X3852274Y-15675357D01*
X3852274Y-15761071D01*
X3837988Y-15789643D01*
X3823702Y-15803929D01*
X3795131Y-15818214D01*
X3737988Y-15818214D01*
X3709416Y-15803929D01*
X3980845Y-15789643D02*
X3995131Y-15803929D01*
X3980845Y-15818214D01*
X3966559Y-15803929D01*
X3980845Y-15789643D01*
X3980845Y-15818214D01*
X3980845Y-15632500D02*
X3995131Y-15646786D01*
X3980845Y-15661071D01*
X3966559Y-15646786D01*
X3980845Y-15632500D01*
X3980845Y-15661071D01*
X1507274Y-16247500D02*
X1637274Y-16377500D01*
X1637274Y-16247500D02*
X1507274Y-16377500D01*
X2080845Y-16448214D02*
X1909416Y-16448214D01*
X1995131Y-16448214D02*
X1995131Y-16148214D01*
X1966559Y-16191071D01*
X1937988Y-16219643D01*
X1909416Y-16233929D01*
X2209416Y-16419643D02*
X2223702Y-16433929D01*
X2209416Y-16448214D01*
X2195131Y-16433929D01*
X2209416Y-16419643D01*
X2209416Y-16448214D01*
X2323702Y-16148214D02*
X2509416Y-16148214D01*
X2409416Y-16262500D01*
X2452274Y-16262500D01*
X2480845Y-16276786D01*
X2495131Y-16291071D01*
X2509416Y-16319643D01*
X2509416Y-16391071D01*
X2495131Y-16419643D01*
X2480845Y-16433929D01*
X2452274Y-16448214D01*
X2366559Y-16448214D01*
X2337988Y-16433929D01*
X2323702Y-16419643D01*
X2695131Y-16148214D02*
X2723702Y-16148214D01*
X2752274Y-16162500D01*
X2766559Y-16176786D01*
X2780845Y-16205357D01*
X2795131Y-16262500D01*
X2795131Y-16333929D01*
X2780845Y-16391071D01*
X2766559Y-16419643D01*
X2752274Y-16433929D01*
X2723702Y-16448214D01*
X2695131Y-16448214D01*
X2666559Y-16433929D01*
X2652274Y-16419643D01*
X2637988Y-16391071D01*
X2623702Y-16333929D01*
X2623702Y-16262500D01*
X2637988Y-16205357D01*
X2652274Y-16176786D01*
X2666559Y-16162500D01*
X2695131Y-16148214D01*
X2923702Y-16448214D02*
X2923702Y-16248214D01*
X2923702Y-16276786D02*
X2937988Y-16262500D01*
X2966559Y-16248214D01*
X3009416Y-16248214D01*
X3037988Y-16262500D01*
X3052274Y-16291071D01*
X3052274Y-16448214D01*
X3052274Y-16291071D02*
X3066559Y-16262500D01*
X3095131Y-16248214D01*
X3137988Y-16248214D01*
X3166559Y-16262500D01*
X3180845Y-16291071D01*
X3180845Y-16448214D01*
X3323702Y-16448214D02*
X3323702Y-16248214D01*
X3323702Y-16276786D02*
X3337988Y-16262500D01*
X3366559Y-16248214D01*
X3409416Y-16248214D01*
X3437988Y-16262500D01*
X3452274Y-16291071D01*
X3452274Y-16448214D01*
X3452274Y-16291071D02*
X3466559Y-16262500D01*
X3495131Y-16248214D01*
X3537988Y-16248214D01*
X3566559Y-16262500D01*
X3580845Y-16291071D01*
X3580845Y-16448214D01*
X4166559Y-16133929D02*
X3909416Y-16519643D01*
X4552274Y-16148214D02*
X4580845Y-16148214D01*
X4609416Y-16162500D01*
X4623702Y-16176786D01*
X4637988Y-16205357D01*
X4652274Y-16262500D01*
X4652274Y-16333929D01*
X4637988Y-16391071D01*
X4623702Y-16419643D01*
X4609416Y-16433929D01*
X4580845Y-16448214D01*
X4552274Y-16448214D01*
X4523702Y-16433929D01*
X4509416Y-16419643D01*
X4495131Y-16391071D01*
X4480845Y-16333929D01*
X4480845Y-16262500D01*
X4495131Y-16205357D01*
X4509416Y-16176786D01*
X4523702Y-16162500D01*
X4552274Y-16148214D01*
X4780845Y-16419643D02*
X4795131Y-16433929D01*
X4780845Y-16448214D01*
X4766559Y-16433929D01*
X4780845Y-16419643D01*
X4780845Y-16448214D01*
X4980845Y-16148214D02*
X5009416Y-16148214D01*
X5037988Y-16162500D01*
X5052274Y-16176786D01*
X5066559Y-16205357D01*
X5080845Y-16262500D01*
X5080845Y-16333929D01*
X5066559Y-16391071D01*
X5052274Y-16419643D01*
X5037988Y-16433929D01*
X5009416Y-16448214D01*
X4980845Y-16448214D01*
X4952274Y-16433929D01*
X4937988Y-16419643D01*
X4923702Y-16391071D01*
X4909416Y-16333929D01*
X4909416Y-16262500D01*
X4923702Y-16205357D01*
X4937988Y-16176786D01*
X4952274Y-16162500D01*
X4980845Y-16148214D01*
X5352274Y-16148214D02*
X5209416Y-16148214D01*
X5195131Y-16291071D01*
X5209416Y-16276786D01*
X5237988Y-16262500D01*
X5309416Y-16262500D01*
X5337988Y-16276786D01*
X5352274Y-16291071D01*
X5366559Y-16319643D01*
X5366559Y-16391071D01*
X5352274Y-16419643D01*
X5337988Y-16433929D01*
X5309416Y-16448214D01*
X5237988Y-16448214D01*
X5209416Y-16433929D01*
X5195131Y-16419643D01*
X5652273Y-16448214D02*
X5480845Y-16448214D01*
X5566559Y-16448214D02*
X5566559Y-16148214D01*
X5537988Y-16191071D01*
X5509416Y-16219643D01*
X5480845Y-16233929D01*
X5766559Y-16148214D02*
X5766559Y-16205357D01*
X5880845Y-16148214D02*
X5880845Y-16205357D01*
X6323702Y-16562500D02*
X6309416Y-16548214D01*
X6280845Y-16505357D01*
X6266559Y-16476786D01*
X6252273Y-16433929D01*
X6237988Y-16362500D01*
X6237988Y-16305357D01*
X6252273Y-16233929D01*
X6266559Y-16191071D01*
X6280845Y-16162500D01*
X6309416Y-16119643D01*
X6323702Y-16105357D01*
X6409416Y-16148214D02*
X6595131Y-16148214D01*
X6495131Y-16262500D01*
X6537988Y-16262500D01*
X6566559Y-16276786D01*
X6580845Y-16291071D01*
X6595131Y-16319643D01*
X6595131Y-16391071D01*
X6580845Y-16419643D01*
X6566559Y-16433929D01*
X6537988Y-16448214D01*
X6452273Y-16448214D01*
X6423702Y-16433929D01*
X6409416Y-16419643D01*
X6852274Y-16148214D02*
X6795131Y-16148214D01*
X6766559Y-16162500D01*
X6752274Y-16176786D01*
X6723702Y-16219643D01*
X6709416Y-16276786D01*
X6709416Y-16391071D01*
X6723702Y-16419643D01*
X6737988Y-16433929D01*
X6766559Y-16448214D01*
X6823702Y-16448214D01*
X6852274Y-16433929D01*
X6866559Y-16419643D01*
X6880845Y-16391071D01*
X6880845Y-16319643D01*
X6866559Y-16291071D01*
X6852274Y-16276786D01*
X6823702Y-16262500D01*
X6766559Y-16262500D01*
X6737988Y-16276786D01*
X6723702Y-16291071D01*
X6709416Y-16319643D01*
X7237988Y-16448214D02*
X7237988Y-16148214D01*
X7366559Y-16448214D02*
X7366559Y-16291071D01*
X7352274Y-16262500D01*
X7323702Y-16248214D01*
X7280845Y-16248214D01*
X7252274Y-16262500D01*
X7237988Y-16276786D01*
X7552274Y-16448214D02*
X7523702Y-16433929D01*
X7509416Y-16419643D01*
X7495131Y-16391071D01*
X7495131Y-16305357D01*
X7509416Y-16276786D01*
X7523702Y-16262500D01*
X7552274Y-16248214D01*
X7595131Y-16248214D01*
X7623702Y-16262500D01*
X7637988Y-16276786D01*
X7652274Y-16305357D01*
X7652274Y-16391071D01*
X7637988Y-16419643D01*
X7623702Y-16433929D01*
X7595131Y-16448214D01*
X7552274Y-16448214D01*
X7823702Y-16448214D02*
X7795131Y-16433929D01*
X7780845Y-16405357D01*
X7780845Y-16148214D01*
X8052274Y-16433929D02*
X8023702Y-16448214D01*
X7966559Y-16448214D01*
X7937988Y-16433929D01*
X7923702Y-16405357D01*
X7923702Y-16291071D01*
X7937988Y-16262500D01*
X7966559Y-16248214D01*
X8023702Y-16248214D01*
X8052274Y-16262500D01*
X8066559Y-16291071D01*
X8066559Y-16319643D01*
X7923702Y-16348214D01*
X8180845Y-16433929D02*
X8209416Y-16448214D01*
X8266559Y-16448214D01*
X8295131Y-16433929D01*
X8309416Y-16405357D01*
X8309416Y-16391071D01*
X8295131Y-16362500D01*
X8266559Y-16348214D01*
X8223702Y-16348214D01*
X8195131Y-16333929D01*
X8180845Y-16305357D01*
X8180845Y-16291071D01*
X8195131Y-16262500D01*
X8223702Y-16248214D01*
X8266559Y-16248214D01*
X8295131Y-16262500D01*
X8409416Y-16562500D02*
X8423702Y-16548214D01*
X8452274Y-16505357D01*
X8466559Y-16476786D01*
X8480845Y-16433929D01*
X8495131Y-16362500D01*
X8495131Y-16305357D01*
X8480845Y-16233929D01*
X8466559Y-16191071D01*
X8452274Y-16162500D01*
X8423702Y-16119643D01*
X8409416Y-16105357D01*
X8952274Y-16562500D02*
X8937988Y-16548214D01*
X8909416Y-16505357D01*
X8895131Y-16476786D01*
X8880845Y-16433929D01*
X8866559Y-16362500D01*
X8866559Y-16305357D01*
X8880845Y-16233929D01*
X8895131Y-16191071D01*
X8909416Y-16162500D01*
X8937988Y-16119643D01*
X8952274Y-16105357D01*
X9066559Y-16248214D02*
X9066559Y-16448214D01*
X9066559Y-16276786D02*
X9080845Y-16262500D01*
X9109416Y-16248214D01*
X9152274Y-16248214D01*
X9180845Y-16262500D01*
X9195131Y-16291071D01*
X9195131Y-16448214D01*
X9380845Y-16448214D02*
X9352274Y-16433929D01*
X9337988Y-16419643D01*
X9323702Y-16391071D01*
X9323702Y-16305357D01*
X9337988Y-16276786D01*
X9352274Y-16262500D01*
X9380845Y-16248214D01*
X9423702Y-16248214D01*
X9452274Y-16262500D01*
X9466559Y-16276786D01*
X9480845Y-16305357D01*
X9480845Y-16391071D01*
X9466559Y-16419643D01*
X9452274Y-16433929D01*
X9423702Y-16448214D01*
X9380845Y-16448214D01*
X9566559Y-16248214D02*
X9680845Y-16248214D01*
X9609416Y-16148214D02*
X9609416Y-16405357D01*
X9623702Y-16433929D01*
X9652274Y-16448214D01*
X9680845Y-16448214D01*
X10009416Y-16248214D02*
X10009416Y-16548214D01*
X10009416Y-16262500D02*
X10037988Y-16248214D01*
X10095131Y-16248214D01*
X10123702Y-16262500D01*
X10137988Y-16276786D01*
X10152274Y-16305357D01*
X10152274Y-16391071D01*
X10137988Y-16419643D01*
X10123702Y-16433929D01*
X10095131Y-16448214D01*
X10037988Y-16448214D01*
X10009416Y-16433929D01*
X10323702Y-16448214D02*
X10295131Y-16433929D01*
X10280845Y-16405357D01*
X10280845Y-16148214D01*
X10566559Y-16448214D02*
X10566559Y-16291071D01*
X10552274Y-16262500D01*
X10523702Y-16248214D01*
X10466559Y-16248214D01*
X10437988Y-16262500D01*
X10566559Y-16433929D02*
X10537988Y-16448214D01*
X10466559Y-16448214D01*
X10437988Y-16433929D01*
X10423702Y-16405357D01*
X10423702Y-16376786D01*
X10437988Y-16348214D01*
X10466559Y-16333929D01*
X10537988Y-16333929D01*
X10566559Y-16319643D01*
X10666559Y-16248214D02*
X10780845Y-16248214D01*
X10709416Y-16148214D02*
X10709416Y-16405357D01*
X10723702Y-16433929D01*
X10752274Y-16448214D01*
X10780845Y-16448214D01*
X10995131Y-16433929D02*
X10966559Y-16448214D01*
X10909416Y-16448214D01*
X10880845Y-16433929D01*
X10866559Y-16405357D01*
X10866559Y-16291071D01*
X10880845Y-16262500D01*
X10909416Y-16248214D01*
X10966559Y-16248214D01*
X10995131Y-16262500D01*
X11009416Y-16291071D01*
X11009416Y-16319643D01*
X10866559Y-16348214D01*
X11266559Y-16448214D02*
X11266559Y-16148214D01*
X11266559Y-16433929D02*
X11237988Y-16448214D01*
X11180845Y-16448214D01*
X11152274Y-16433929D01*
X11137988Y-16419643D01*
X11123702Y-16391071D01*
X11123702Y-16305357D01*
X11137988Y-16276786D01*
X11152274Y-16262500D01*
X11180845Y-16248214D01*
X11237988Y-16248214D01*
X11266559Y-16262500D01*
X11380845Y-16562500D02*
X11395131Y-16548214D01*
X11423702Y-16505357D01*
X11437988Y-16476786D01*
X11452274Y-16433929D01*
X11466559Y-16362500D01*
X11466559Y-16305357D01*
X11452274Y-16233929D01*
X11437988Y-16191071D01*
X11423702Y-16162500D01*
X11395131Y-16119643D01*
X11380845Y-16105357D01*
X1637274Y-16708500D02*
G75*
G03*
X1637274Y-16708500I-95000J0D01*
G01*
X2080845Y-16844214D02*
X1909416Y-16844214D01*
X1995131Y-16844214D02*
X1995131Y-16544214D01*
X1966559Y-16587071D01*
X1937988Y-16615643D01*
X1909416Y-16629929D01*
X2209416Y-16815643D02*
X2223702Y-16829929D01*
X2209416Y-16844214D01*
X2195131Y-16829929D01*
X2209416Y-16815643D01*
X2209416Y-16844214D01*
X2366559Y-16844214D02*
X2423702Y-16844214D01*
X2452274Y-16829929D01*
X2466559Y-16815643D01*
X2495131Y-16772786D01*
X2509416Y-16715643D01*
X2509416Y-16601357D01*
X2495131Y-16572786D01*
X2480845Y-16558500D01*
X2452274Y-16544214D01*
X2395131Y-16544214D01*
X2366559Y-16558500D01*
X2352274Y-16572786D01*
X2337988Y-16601357D01*
X2337988Y-16672786D01*
X2352274Y-16701357D01*
X2366559Y-16715643D01*
X2395131Y-16729929D01*
X2452274Y-16729929D01*
X2480845Y-16715643D01*
X2495131Y-16701357D01*
X2509416Y-16672786D01*
X2695131Y-16544214D02*
X2723702Y-16544214D01*
X2752274Y-16558500D01*
X2766559Y-16572786D01*
X2780845Y-16601357D01*
X2795131Y-16658500D01*
X2795131Y-16729929D01*
X2780845Y-16787072D01*
X2766559Y-16815643D01*
X2752274Y-16829929D01*
X2723702Y-16844214D01*
X2695131Y-16844214D01*
X2666559Y-16829929D01*
X2652274Y-16815643D01*
X2637988Y-16787072D01*
X2623702Y-16729929D01*
X2623702Y-16658500D01*
X2637988Y-16601357D01*
X2652274Y-16572786D01*
X2666559Y-16558500D01*
X2695131Y-16544214D01*
X2923702Y-16844214D02*
X2923702Y-16644214D01*
X2923702Y-16672786D02*
X2937988Y-16658500D01*
X2966559Y-16644214D01*
X3009416Y-16644214D01*
X3037988Y-16658500D01*
X3052274Y-16687071D01*
X3052274Y-16844214D01*
X3052274Y-16687071D02*
X3066559Y-16658500D01*
X3095131Y-16644214D01*
X3137988Y-16644214D01*
X3166559Y-16658500D01*
X3180845Y-16687071D01*
X3180845Y-16844214D01*
X3323702Y-16844214D02*
X3323702Y-16644214D01*
X3323702Y-16672786D02*
X3337988Y-16658500D01*
X3366559Y-16644214D01*
X3409416Y-16644214D01*
X3437988Y-16658500D01*
X3452274Y-16687071D01*
X3452274Y-16844214D01*
X3452274Y-16687071D02*
X3466559Y-16658500D01*
X3495131Y-16644214D01*
X3537988Y-16644214D01*
X3566559Y-16658500D01*
X3580845Y-16687071D01*
X3580845Y-16844214D01*
X4166559Y-16529929D02*
X3909416Y-16915643D01*
X4552274Y-16544214D02*
X4580845Y-16544214D01*
X4609416Y-16558500D01*
X4623702Y-16572786D01*
X4637988Y-16601357D01*
X4652274Y-16658500D01*
X4652274Y-16729929D01*
X4637988Y-16787072D01*
X4623702Y-16815643D01*
X4609416Y-16829929D01*
X4580845Y-16844214D01*
X4552274Y-16844214D01*
X4523702Y-16829929D01*
X4509416Y-16815643D01*
X4495131Y-16787072D01*
X4480845Y-16729929D01*
X4480845Y-16658500D01*
X4495131Y-16601357D01*
X4509416Y-16572786D01*
X4523702Y-16558500D01*
X4552274Y-16544214D01*
X4780845Y-16815643D02*
X4795131Y-16829929D01*
X4780845Y-16844214D01*
X4766559Y-16829929D01*
X4780845Y-16815643D01*
X4780845Y-16844214D01*
X4980845Y-16544214D02*
X5009416Y-16544214D01*
X5037988Y-16558500D01*
X5052274Y-16572786D01*
X5066559Y-16601357D01*
X5080845Y-16658500D01*
X5080845Y-16729929D01*
X5066559Y-16787072D01*
X5052274Y-16815643D01*
X5037988Y-16829929D01*
X5009416Y-16844214D01*
X4980845Y-16844214D01*
X4952274Y-16829929D01*
X4937988Y-16815643D01*
X4923702Y-16787072D01*
X4909416Y-16729929D01*
X4909416Y-16658500D01*
X4923702Y-16601357D01*
X4937988Y-16572786D01*
X4952274Y-16558500D01*
X4980845Y-16544214D01*
X5180845Y-16544214D02*
X5380845Y-16544214D01*
X5252274Y-16844214D01*
X5637988Y-16544214D02*
X5495131Y-16544214D01*
X5480845Y-16687071D01*
X5495131Y-16672786D01*
X5523702Y-16658500D01*
X5595131Y-16658500D01*
X5623702Y-16672786D01*
X5637988Y-16687071D01*
X5652273Y-16715643D01*
X5652273Y-16787072D01*
X5637988Y-16815643D01*
X5623702Y-16829929D01*
X5595131Y-16844214D01*
X5523702Y-16844214D01*
X5495131Y-16829929D01*
X5480845Y-16815643D01*
X5766559Y-16544214D02*
X5766559Y-16601357D01*
X5880845Y-16544214D02*
X5880845Y-16601357D01*
X6323702Y-16958500D02*
X6309416Y-16944214D01*
X6280845Y-16901357D01*
X6266559Y-16872786D01*
X6252273Y-16829929D01*
X6237988Y-16758500D01*
X6237988Y-16701357D01*
X6252273Y-16629929D01*
X6266559Y-16587071D01*
X6280845Y-16558500D01*
X6309416Y-16515643D01*
X6323702Y-16501357D01*
X6409416Y-16544214D02*
X6609416Y-16544214D01*
X6480845Y-16844214D01*
X6709416Y-16572786D02*
X6723702Y-16558500D01*
X6752274Y-16544214D01*
X6823702Y-16544214D01*
X6852274Y-16558500D01*
X6866559Y-16572786D01*
X6880845Y-16601357D01*
X6880845Y-16629929D01*
X6866559Y-16672786D01*
X6695131Y-16844214D01*
X6880845Y-16844214D01*
X7237988Y-16844214D02*
X7237988Y-16544214D01*
X7366559Y-16844214D02*
X7366559Y-16687071D01*
X7352274Y-16658500D01*
X7323702Y-16644214D01*
X7280845Y-16644214D01*
X7252274Y-16658500D01*
X7237988Y-16672786D01*
X7552274Y-16844214D02*
X7523702Y-16829929D01*
X7509416Y-16815643D01*
X7495131Y-16787072D01*
X7495131Y-16701357D01*
X7509416Y-16672786D01*
X7523702Y-16658500D01*
X7552274Y-16644214D01*
X7595131Y-16644214D01*
X7623702Y-16658500D01*
X7637988Y-16672786D01*
X7652274Y-16701357D01*
X7652274Y-16787072D01*
X7637988Y-16815643D01*
X7623702Y-16829929D01*
X7595131Y-16844214D01*
X7552274Y-16844214D01*
X7823702Y-16844214D02*
X7795131Y-16829929D01*
X7780845Y-16801357D01*
X7780845Y-16544214D01*
X8052274Y-16829929D02*
X8023702Y-16844214D01*
X7966559Y-16844214D01*
X7937988Y-16829929D01*
X7923702Y-16801357D01*
X7923702Y-16687071D01*
X7937988Y-16658500D01*
X7966559Y-16644214D01*
X8023702Y-16644214D01*
X8052274Y-16658500D01*
X8066559Y-16687071D01*
X8066559Y-16715643D01*
X7923702Y-16744214D01*
X8180845Y-16829929D02*
X8209416Y-16844214D01*
X8266559Y-16844214D01*
X8295131Y-16829929D01*
X8309416Y-16801357D01*
X8309416Y-16787072D01*
X8295131Y-16758500D01*
X8266559Y-16744214D01*
X8223702Y-16744214D01*
X8195131Y-16729929D01*
X8180845Y-16701357D01*
X8180845Y-16687071D01*
X8195131Y-16658500D01*
X8223702Y-16644214D01*
X8266559Y-16644214D01*
X8295131Y-16658500D01*
X8409416Y-16958500D02*
X8423702Y-16944214D01*
X8452274Y-16901357D01*
X8466559Y-16872786D01*
X8480845Y-16829929D01*
X8495131Y-16758500D01*
X8495131Y-16701357D01*
X8480845Y-16629929D01*
X8466559Y-16587071D01*
X8452274Y-16558500D01*
X8423702Y-16515643D01*
X8409416Y-16501357D01*
X8952274Y-16958500D02*
X8937988Y-16944214D01*
X8909416Y-16901357D01*
X8895131Y-16872786D01*
X8880845Y-16829929D01*
X8866559Y-16758500D01*
X8866559Y-16701357D01*
X8880845Y-16629929D01*
X8895131Y-16587071D01*
X8909416Y-16558500D01*
X8937988Y-16515643D01*
X8952274Y-16501357D01*
X9066559Y-16644214D02*
X9066559Y-16844214D01*
X9066559Y-16672786D02*
X9080845Y-16658500D01*
X9109416Y-16644214D01*
X9152274Y-16644214D01*
X9180845Y-16658500D01*
X9195131Y-16687071D01*
X9195131Y-16844214D01*
X9380845Y-16844214D02*
X9352274Y-16829929D01*
X9337988Y-16815643D01*
X9323702Y-16787072D01*
X9323702Y-16701357D01*
X9337988Y-16672786D01*
X9352274Y-16658500D01*
X9380845Y-16644214D01*
X9423702Y-16644214D01*
X9452274Y-16658500D01*
X9466559Y-16672786D01*
X9480845Y-16701357D01*
X9480845Y-16787072D01*
X9466559Y-16815643D01*
X9452274Y-16829929D01*
X9423702Y-16844214D01*
X9380845Y-16844214D01*
X9566559Y-16644214D02*
X9680845Y-16644214D01*
X9609416Y-16544214D02*
X9609416Y-16801357D01*
X9623702Y-16829929D01*
X9652274Y-16844214D01*
X9680845Y-16844214D01*
X10009416Y-16644214D02*
X10009416Y-16944214D01*
X10009416Y-16658500D02*
X10037988Y-16644214D01*
X10095131Y-16644214D01*
X10123702Y-16658500D01*
X10137988Y-16672786D01*
X10152274Y-16701357D01*
X10152274Y-16787072D01*
X10137988Y-16815643D01*
X10123702Y-16829929D01*
X10095131Y-16844214D01*
X10037988Y-16844214D01*
X10009416Y-16829929D01*
X10323702Y-16844214D02*
X10295131Y-16829929D01*
X10280845Y-16801357D01*
X10280845Y-16544214D01*
X10566559Y-16844214D02*
X10566559Y-16687071D01*
X10552274Y-16658500D01*
X10523702Y-16644214D01*
X10466559Y-16644214D01*
X10437988Y-16658500D01*
X10566559Y-16829929D02*
X10537988Y-16844214D01*
X10466559Y-16844214D01*
X10437988Y-16829929D01*
X10423702Y-16801357D01*
X10423702Y-16772786D01*
X10437988Y-16744214D01*
X10466559Y-16729929D01*
X10537988Y-16729929D01*
X10566559Y-16715643D01*
X10666559Y-16644214D02*
X10780845Y-16644214D01*
X10709416Y-16544214D02*
X10709416Y-16801357D01*
X10723702Y-16829929D01*
X10752274Y-16844214D01*
X10780845Y-16844214D01*
X10995131Y-16829929D02*
X10966559Y-16844214D01*
X10909416Y-16844214D01*
X10880845Y-16829929D01*
X10866559Y-16801357D01*
X10866559Y-16687071D01*
X10880845Y-16658500D01*
X10909416Y-16644214D01*
X10966559Y-16644214D01*
X10995131Y-16658500D01*
X11009416Y-16687071D01*
X11009416Y-16715643D01*
X10866559Y-16744214D01*
X11266559Y-16844214D02*
X11266559Y-16544214D01*
X11266559Y-16829929D02*
X11237988Y-16844214D01*
X11180845Y-16844214D01*
X11152274Y-16829929D01*
X11137988Y-16815643D01*
X11123702Y-16787072D01*
X11123702Y-16701357D01*
X11137988Y-16672786D01*
X11152274Y-16658500D01*
X11180845Y-16644214D01*
X11237988Y-16644214D01*
X11266559Y-16658500D01*
X11380845Y-16958500D02*
X11395131Y-16944214D01*
X11423702Y-16901357D01*
X11437988Y-16872786D01*
X11452274Y-16829929D01*
X11466559Y-16758500D01*
X11466559Y-16701357D01*
X11452274Y-16629929D01*
X11437988Y-16587071D01*
X11423702Y-16558500D01*
X11395131Y-16515643D01*
X11380845Y-16501357D01*
X1517274Y-16984500D02*
X1517274Y-17224500D01*
X1397274Y-17104500D02*
X1637274Y-17104500D01*
X1909416Y-16968786D02*
X1923702Y-16954500D01*
X1952274Y-16940214D01*
X2023702Y-16940214D01*
X2052274Y-16954500D01*
X2066559Y-16968786D01*
X2080845Y-16997357D01*
X2080845Y-17025929D01*
X2066559Y-17068786D01*
X1895131Y-17240214D01*
X2080845Y-17240214D01*
X2209416Y-17211643D02*
X2223702Y-17225929D01*
X2209416Y-17240214D01*
X2195131Y-17225929D01*
X2209416Y-17211643D01*
X2209416Y-17240214D01*
X2480845Y-17040214D02*
X2480845Y-17240214D01*
X2409416Y-16925929D02*
X2337988Y-17140214D01*
X2523702Y-17140214D01*
X2695131Y-16940214D02*
X2723702Y-16940214D01*
X2752274Y-16954500D01*
X2766559Y-16968786D01*
X2780845Y-16997357D01*
X2795131Y-17054500D01*
X2795131Y-17125929D01*
X2780845Y-17183072D01*
X2766559Y-17211643D01*
X2752274Y-17225929D01*
X2723702Y-17240214D01*
X2695131Y-17240214D01*
X2666559Y-17225929D01*
X2652274Y-17211643D01*
X2637988Y-17183072D01*
X2623702Y-17125929D01*
X2623702Y-17054500D01*
X2637988Y-16997357D01*
X2652274Y-16968786D01*
X2666559Y-16954500D01*
X2695131Y-16940214D01*
X2923702Y-17240214D02*
X2923702Y-17040214D01*
X2923702Y-17068786D02*
X2937988Y-17054500D01*
X2966559Y-17040214D01*
X3009416Y-17040214D01*
X3037988Y-17054500D01*
X3052274Y-17083072D01*
X3052274Y-17240214D01*
X3052274Y-17083072D02*
X3066559Y-17054500D01*
X3095131Y-17040214D01*
X3137988Y-17040214D01*
X3166559Y-17054500D01*
X3180845Y-17083072D01*
X3180845Y-17240214D01*
X3323702Y-17240214D02*
X3323702Y-17040214D01*
X3323702Y-17068786D02*
X3337988Y-17054500D01*
X3366559Y-17040214D01*
X3409416Y-17040214D01*
X3437988Y-17054500D01*
X3452274Y-17083072D01*
X3452274Y-17240214D01*
X3452274Y-17083072D02*
X3466559Y-17054500D01*
X3495131Y-17040214D01*
X3537988Y-17040214D01*
X3566559Y-17054500D01*
X3580845Y-17083072D01*
X3580845Y-17240214D01*
X4166559Y-16925929D02*
X3909416Y-17311643D01*
X4552274Y-16940214D02*
X4580845Y-16940214D01*
X4609416Y-16954500D01*
X4623702Y-16968786D01*
X4637988Y-16997357D01*
X4652274Y-17054500D01*
X4652274Y-17125929D01*
X4637988Y-17183072D01*
X4623702Y-17211643D01*
X4609416Y-17225929D01*
X4580845Y-17240214D01*
X4552274Y-17240214D01*
X4523702Y-17225929D01*
X4509416Y-17211643D01*
X4495131Y-17183072D01*
X4480845Y-17125929D01*
X4480845Y-17054500D01*
X4495131Y-16997357D01*
X4509416Y-16968786D01*
X4523702Y-16954500D01*
X4552274Y-16940214D01*
X4780845Y-17211643D02*
X4795131Y-17225929D01*
X4780845Y-17240214D01*
X4766559Y-17225929D01*
X4780845Y-17211643D01*
X4780845Y-17240214D01*
X4980845Y-16940214D02*
X5009416Y-16940214D01*
X5037988Y-16954500D01*
X5052274Y-16968786D01*
X5066559Y-16997357D01*
X5080845Y-17054500D01*
X5080845Y-17125929D01*
X5066559Y-17183072D01*
X5052274Y-17211643D01*
X5037988Y-17225929D01*
X5009416Y-17240214D01*
X4980845Y-17240214D01*
X4952274Y-17225929D01*
X4937988Y-17211643D01*
X4923702Y-17183072D01*
X4909416Y-17125929D01*
X4909416Y-17054500D01*
X4923702Y-16997357D01*
X4937988Y-16968786D01*
X4952274Y-16954500D01*
X4980845Y-16940214D01*
X5223702Y-17240214D02*
X5280845Y-17240214D01*
X5309416Y-17225929D01*
X5323702Y-17211643D01*
X5352274Y-17168786D01*
X5366559Y-17111643D01*
X5366559Y-16997357D01*
X5352274Y-16968786D01*
X5337988Y-16954500D01*
X5309416Y-16940214D01*
X5252274Y-16940214D01*
X5223702Y-16954500D01*
X5209416Y-16968786D01*
X5195131Y-16997357D01*
X5195131Y-17068786D01*
X5209416Y-17097357D01*
X5223702Y-17111643D01*
X5252274Y-17125929D01*
X5309416Y-17125929D01*
X5337988Y-17111643D01*
X5352274Y-17097357D01*
X5366559Y-17068786D01*
X5623702Y-17040214D02*
X5623702Y-17240214D01*
X5552274Y-16925929D02*
X5480845Y-17140214D01*
X5666559Y-17140214D01*
X5766559Y-16940214D02*
X5766559Y-16997357D01*
X5880845Y-16940214D02*
X5880845Y-16997357D01*
X6323702Y-17354500D02*
X6309416Y-17340214D01*
X6280845Y-17297357D01*
X6266559Y-17268786D01*
X6252273Y-17225929D01*
X6237988Y-17154500D01*
X6237988Y-17097357D01*
X6252273Y-17025929D01*
X6266559Y-16983072D01*
X6280845Y-16954500D01*
X6309416Y-16911643D01*
X6323702Y-16897357D01*
X6566559Y-17040214D02*
X6566559Y-17240214D01*
X6495131Y-16925929D02*
X6423702Y-17140214D01*
X6609416Y-17140214D01*
X6952274Y-17240214D02*
X6952274Y-16940214D01*
X7080845Y-17240214D02*
X7080845Y-17083072D01*
X7066559Y-17054500D01*
X7037988Y-17040214D01*
X6995131Y-17040214D01*
X6966559Y-17054500D01*
X6952274Y-17068786D01*
X7266559Y-17240214D02*
X7237988Y-17225929D01*
X7223702Y-17211643D01*
X7209416Y-17183072D01*
X7209416Y-17097357D01*
X7223702Y-17068786D01*
X7237988Y-17054500D01*
X7266559Y-17040214D01*
X7309416Y-17040214D01*
X7337988Y-17054500D01*
X7352274Y-17068786D01*
X7366559Y-17097357D01*
X7366559Y-17183072D01*
X7352274Y-17211643D01*
X7337988Y-17225929D01*
X7309416Y-17240214D01*
X7266559Y-17240214D01*
X7537988Y-17240214D02*
X7509416Y-17225929D01*
X7495131Y-17197357D01*
X7495131Y-16940214D01*
X7766559Y-17225929D02*
X7737988Y-17240214D01*
X7680845Y-17240214D01*
X7652274Y-17225929D01*
X7637988Y-17197357D01*
X7637988Y-17083072D01*
X7652274Y-17054500D01*
X7680845Y-17040214D01*
X7737988Y-17040214D01*
X7766559Y-17054500D01*
X7780845Y-17083072D01*
X7780845Y-17111643D01*
X7637988Y-17140214D01*
X7895131Y-17225929D02*
X7923702Y-17240214D01*
X7980845Y-17240214D01*
X8009416Y-17225929D01*
X8023702Y-17197357D01*
X8023702Y-17183072D01*
X8009416Y-17154500D01*
X7980845Y-17140214D01*
X7937988Y-17140214D01*
X7909416Y-17125929D01*
X7895131Y-17097357D01*
X7895131Y-17083072D01*
X7909416Y-17054500D01*
X7937988Y-17040214D01*
X7980845Y-17040214D01*
X8009416Y-17054500D01*
X8123702Y-17354500D02*
X8137988Y-17340214D01*
X8166559Y-17297357D01*
X8180845Y-17268786D01*
X8195131Y-17225929D01*
X8209416Y-17154500D01*
X8209416Y-17097357D01*
X8195131Y-17025929D01*
X8180845Y-16983072D01*
X8166559Y-16954500D01*
X8137988Y-16911643D01*
X8123702Y-16897357D01*
X8666559Y-17354500D02*
X8652274Y-17340214D01*
X8623702Y-17297357D01*
X8609416Y-17268786D01*
X8595131Y-17225929D01*
X8580845Y-17154500D01*
X8580845Y-17097357D01*
X8595131Y-17025929D01*
X8609416Y-16983072D01*
X8623702Y-16954500D01*
X8652274Y-16911643D01*
X8666559Y-16897357D01*
X8780845Y-17040214D02*
X8780845Y-17240214D01*
X8780845Y-17068786D02*
X8795131Y-17054500D01*
X8823702Y-17040214D01*
X8866559Y-17040214D01*
X8895131Y-17054500D01*
X8909416Y-17083072D01*
X8909416Y-17240214D01*
X9095131Y-17240214D02*
X9066559Y-17225929D01*
X9052274Y-17211643D01*
X9037988Y-17183072D01*
X9037988Y-17097357D01*
X9052274Y-17068786D01*
X9066559Y-17054500D01*
X9095131Y-17040214D01*
X9137988Y-17040214D01*
X9166559Y-17054500D01*
X9180845Y-17068786D01*
X9195131Y-17097357D01*
X9195131Y-17183072D01*
X9180845Y-17211643D01*
X9166559Y-17225929D01*
X9137988Y-17240214D01*
X9095131Y-17240214D01*
X9280845Y-17040214D02*
X9395131Y-17040214D01*
X9323702Y-16940214D02*
X9323702Y-17197357D01*
X9337988Y-17225929D01*
X9366559Y-17240214D01*
X9395131Y-17240214D01*
X9723702Y-17040214D02*
X9723702Y-17340214D01*
X9723702Y-17054500D02*
X9752274Y-17040214D01*
X9809416Y-17040214D01*
X9837988Y-17054500D01*
X9852274Y-17068786D01*
X9866559Y-17097357D01*
X9866559Y-17183072D01*
X9852274Y-17211643D01*
X9837988Y-17225929D01*
X9809416Y-17240214D01*
X9752274Y-17240214D01*
X9723702Y-17225929D01*
X10037988Y-17240214D02*
X10009416Y-17225929D01*
X9995131Y-17197357D01*
X9995131Y-16940214D01*
X10280845Y-17240214D02*
X10280845Y-17083072D01*
X10266559Y-17054500D01*
X10237988Y-17040214D01*
X10180845Y-17040214D01*
X10152274Y-17054500D01*
X10280845Y-17225929D02*
X10252274Y-17240214D01*
X10180845Y-17240214D01*
X10152274Y-17225929D01*
X10137988Y-17197357D01*
X10137988Y-17168786D01*
X10152274Y-17140214D01*
X10180845Y-17125929D01*
X10252274Y-17125929D01*
X10280845Y-17111643D01*
X10380845Y-17040214D02*
X10495131Y-17040214D01*
X10423702Y-16940214D02*
X10423702Y-17197357D01*
X10437988Y-17225929D01*
X10466559Y-17240214D01*
X10495131Y-17240214D01*
X10709416Y-17225929D02*
X10680845Y-17240214D01*
X10623702Y-17240214D01*
X10595131Y-17225929D01*
X10580845Y-17197357D01*
X10580845Y-17083072D01*
X10595131Y-17054500D01*
X10623702Y-17040214D01*
X10680845Y-17040214D01*
X10709416Y-17054500D01*
X10723702Y-17083072D01*
X10723702Y-17111643D01*
X10580845Y-17140214D01*
X10980845Y-17240214D02*
X10980845Y-16940214D01*
X10980845Y-17225929D02*
X10952274Y-17240214D01*
X10895131Y-17240214D01*
X10866559Y-17225929D01*
X10852274Y-17211643D01*
X10837988Y-17183072D01*
X10837988Y-17097357D01*
X10852274Y-17068786D01*
X10866559Y-17054500D01*
X10895131Y-17040214D01*
X10952274Y-17040214D01*
X10980845Y-17054500D01*
X11095131Y-17354500D02*
X11109416Y-17340214D01*
X11137988Y-17297357D01*
X11152274Y-17268786D01*
X11166559Y-17225929D01*
X11180845Y-17154500D01*
X11180845Y-17097357D01*
X11166559Y-17025929D01*
X11152274Y-16983072D01*
X11137988Y-16954500D01*
X11109416Y-16911643D01*
X11095131Y-16897357D01*
X1592608Y-17608335D02*
X1592608Y-17392665D01*
X1376939Y-17392665D01*
X1376939Y-17608335D01*
X1592608Y-17608335D01*
X1895131Y-17336214D02*
X2080845Y-17336214D01*
X1980845Y-17450500D01*
X2023702Y-17450500D01*
X2052274Y-17464786D01*
X2066559Y-17479072D01*
X2080845Y-17507643D01*
X2080845Y-17579072D01*
X2066559Y-17607643D01*
X2052274Y-17621929D01*
X2023702Y-17636214D01*
X1937988Y-17636214D01*
X1909416Y-17621929D01*
X1895131Y-17607643D01*
X2209416Y-17607643D02*
X2223702Y-17621929D01*
X2209416Y-17636214D01*
X2195131Y-17621929D01*
X2209416Y-17607643D01*
X2209416Y-17636214D01*
X2409416Y-17336214D02*
X2437988Y-17336214D01*
X2466559Y-17350500D01*
X2480845Y-17364786D01*
X2495131Y-17393357D01*
X2509416Y-17450500D01*
X2509416Y-17521929D01*
X2495131Y-17579072D01*
X2480845Y-17607643D01*
X2466559Y-17621929D01*
X2437988Y-17636214D01*
X2409416Y-17636214D01*
X2380845Y-17621929D01*
X2366559Y-17607643D01*
X2352274Y-17579072D01*
X2337988Y-17521929D01*
X2337988Y-17450500D01*
X2352274Y-17393357D01*
X2366559Y-17364786D01*
X2380845Y-17350500D01*
X2409416Y-17336214D01*
X2780845Y-17336214D02*
X2637988Y-17336214D01*
X2623702Y-17479072D01*
X2637988Y-17464786D01*
X2666559Y-17450500D01*
X2737988Y-17450500D01*
X2766559Y-17464786D01*
X2780845Y-17479072D01*
X2795131Y-17507643D01*
X2795131Y-17579072D01*
X2780845Y-17607643D01*
X2766559Y-17621929D01*
X2737988Y-17636214D01*
X2666559Y-17636214D01*
X2637988Y-17621929D01*
X2623702Y-17607643D01*
X2923702Y-17636214D02*
X2923702Y-17436214D01*
X2923702Y-17464786D02*
X2937988Y-17450500D01*
X2966559Y-17436214D01*
X3009416Y-17436214D01*
X3037988Y-17450500D01*
X3052274Y-17479072D01*
X3052274Y-17636214D01*
X3052274Y-17479072D02*
X3066559Y-17450500D01*
X3095131Y-17436214D01*
X3137988Y-17436214D01*
X3166559Y-17450500D01*
X3180845Y-17479072D01*
X3180845Y-17636214D01*
X3323702Y-17636214D02*
X3323702Y-17436214D01*
X3323702Y-17464786D02*
X3337988Y-17450500D01*
X3366559Y-17436214D01*
X3409416Y-17436214D01*
X3437988Y-17450500D01*
X3452274Y-17479072D01*
X3452274Y-17636214D01*
X3452274Y-17479072D02*
X3466559Y-17450500D01*
X3495131Y-17436214D01*
X3537988Y-17436214D01*
X3566559Y-17450500D01*
X3580845Y-17479072D01*
X3580845Y-17636214D01*
X4166559Y-17321929D02*
X3909416Y-17707643D01*
X4552274Y-17336214D02*
X4580845Y-17336214D01*
X4609416Y-17350500D01*
X4623702Y-17364786D01*
X4637988Y-17393357D01*
X4652274Y-17450500D01*
X4652274Y-17521929D01*
X4637988Y-17579072D01*
X4623702Y-17607643D01*
X4609416Y-17621929D01*
X4580845Y-17636214D01*
X4552274Y-17636214D01*
X4523702Y-17621929D01*
X4509416Y-17607643D01*
X4495131Y-17579072D01*
X4480845Y-17521929D01*
X4480845Y-17450500D01*
X4495131Y-17393357D01*
X4509416Y-17364786D01*
X4523702Y-17350500D01*
X4552274Y-17336214D01*
X4780845Y-17607643D02*
X4795131Y-17621929D01*
X4780845Y-17636214D01*
X4766559Y-17621929D01*
X4780845Y-17607643D01*
X4780845Y-17636214D01*
X5080845Y-17636214D02*
X4909416Y-17636214D01*
X4995131Y-17636214D02*
X4995131Y-17336214D01*
X4966559Y-17379072D01*
X4937988Y-17407643D01*
X4909416Y-17421929D01*
X5195131Y-17364786D02*
X5209416Y-17350500D01*
X5237988Y-17336214D01*
X5309416Y-17336214D01*
X5337988Y-17350500D01*
X5352274Y-17364786D01*
X5366559Y-17393357D01*
X5366559Y-17421929D01*
X5352274Y-17464786D01*
X5180845Y-17636214D01*
X5366559Y-17636214D01*
X5552274Y-17336214D02*
X5580845Y-17336214D01*
X5609416Y-17350500D01*
X5623702Y-17364786D01*
X5637988Y-17393357D01*
X5652273Y-17450500D01*
X5652273Y-17521929D01*
X5637988Y-17579072D01*
X5623702Y-17607643D01*
X5609416Y-17621929D01*
X5580845Y-17636214D01*
X5552274Y-17636214D01*
X5523702Y-17621929D01*
X5509416Y-17607643D01*
X5495131Y-17579072D01*
X5480845Y-17521929D01*
X5480845Y-17450500D01*
X5495131Y-17393357D01*
X5509416Y-17364786D01*
X5523702Y-17350500D01*
X5552274Y-17336214D01*
X5766559Y-17336214D02*
X5766559Y-17393357D01*
X5880845Y-17336214D02*
X5880845Y-17393357D01*
X6323702Y-17750500D02*
X6309416Y-17736214D01*
X6280845Y-17693357D01*
X6266559Y-17664786D01*
X6252273Y-17621929D01*
X6237988Y-17550500D01*
X6237988Y-17493357D01*
X6252273Y-17421929D01*
X6266559Y-17379072D01*
X6280845Y-17350500D01*
X6309416Y-17307643D01*
X6323702Y-17293357D01*
X6409416Y-17336214D02*
X6609416Y-17336214D01*
X6480845Y-17636214D01*
X6709416Y-17364786D02*
X6723702Y-17350500D01*
X6752274Y-17336214D01*
X6823702Y-17336214D01*
X6852274Y-17350500D01*
X6866559Y-17364786D01*
X6880845Y-17393357D01*
X6880845Y-17421929D01*
X6866559Y-17464786D01*
X6695131Y-17636214D01*
X6880845Y-17636214D01*
X7237988Y-17636214D02*
X7237988Y-17336214D01*
X7366559Y-17636214D02*
X7366559Y-17479072D01*
X7352274Y-17450500D01*
X7323702Y-17436214D01*
X7280845Y-17436214D01*
X7252274Y-17450500D01*
X7237988Y-17464786D01*
X7552274Y-17636214D02*
X7523702Y-17621929D01*
X7509416Y-17607643D01*
X7495131Y-17579072D01*
X7495131Y-17493357D01*
X7509416Y-17464786D01*
X7523702Y-17450500D01*
X7552274Y-17436214D01*
X7595131Y-17436214D01*
X7623702Y-17450500D01*
X7637988Y-17464786D01*
X7652274Y-17493357D01*
X7652274Y-17579072D01*
X7637988Y-17607643D01*
X7623702Y-17621929D01*
X7595131Y-17636214D01*
X7552274Y-17636214D01*
X7823702Y-17636214D02*
X7795131Y-17621929D01*
X7780845Y-17593357D01*
X7780845Y-17336214D01*
X8052274Y-17621929D02*
X8023702Y-17636214D01*
X7966559Y-17636214D01*
X7937988Y-17621929D01*
X7923702Y-17593357D01*
X7923702Y-17479072D01*
X7937988Y-17450500D01*
X7966559Y-17436214D01*
X8023702Y-17436214D01*
X8052274Y-17450500D01*
X8066559Y-17479072D01*
X8066559Y-17507643D01*
X7923702Y-17536214D01*
X8180845Y-17621929D02*
X8209416Y-17636214D01*
X8266559Y-17636214D01*
X8295131Y-17621929D01*
X8309416Y-17593357D01*
X8309416Y-17579072D01*
X8295131Y-17550500D01*
X8266559Y-17536214D01*
X8223702Y-17536214D01*
X8195131Y-17521929D01*
X8180845Y-17493357D01*
X8180845Y-17479072D01*
X8195131Y-17450500D01*
X8223702Y-17436214D01*
X8266559Y-17436214D01*
X8295131Y-17450500D01*
X8409416Y-17750500D02*
X8423702Y-17736214D01*
X8452274Y-17693357D01*
X8466559Y-17664786D01*
X8480845Y-17621929D01*
X8495131Y-17550500D01*
X8495131Y-17493357D01*
X8480845Y-17421929D01*
X8466559Y-17379072D01*
X8452274Y-17350500D01*
X8423702Y-17307643D01*
X8409416Y-17293357D01*
X8952274Y-17750500D02*
X8937988Y-17736214D01*
X8909416Y-17693357D01*
X8895131Y-17664786D01*
X8880845Y-17621929D01*
X8866559Y-17550500D01*
X8866559Y-17493357D01*
X8880845Y-17421929D01*
X8895131Y-17379072D01*
X8909416Y-17350500D01*
X8937988Y-17307643D01*
X8952274Y-17293357D01*
X9066559Y-17436214D02*
X9066559Y-17636214D01*
X9066559Y-17464786D02*
X9080845Y-17450500D01*
X9109416Y-17436214D01*
X9152274Y-17436214D01*
X9180845Y-17450500D01*
X9195131Y-17479072D01*
X9195131Y-17636214D01*
X9380845Y-17636214D02*
X9352274Y-17621929D01*
X9337988Y-17607643D01*
X9323702Y-17579072D01*
X9323702Y-17493357D01*
X9337988Y-17464786D01*
X9352274Y-17450500D01*
X9380845Y-17436214D01*
X9423702Y-17436214D01*
X9452274Y-17450500D01*
X9466559Y-17464786D01*
X9480845Y-17493357D01*
X9480845Y-17579072D01*
X9466559Y-17607643D01*
X9452274Y-17621929D01*
X9423702Y-17636214D01*
X9380845Y-17636214D01*
X9566559Y-17436214D02*
X9680845Y-17436214D01*
X9609416Y-17336214D02*
X9609416Y-17593357D01*
X9623702Y-17621929D01*
X9652274Y-17636214D01*
X9680845Y-17636214D01*
X10009416Y-17436214D02*
X10009416Y-17736214D01*
X10009416Y-17450500D02*
X10037988Y-17436214D01*
X10095131Y-17436214D01*
X10123702Y-17450500D01*
X10137988Y-17464786D01*
X10152274Y-17493357D01*
X10152274Y-17579072D01*
X10137988Y-17607643D01*
X10123702Y-17621929D01*
X10095131Y-17636214D01*
X10037988Y-17636214D01*
X10009416Y-17621929D01*
X10323702Y-17636214D02*
X10295131Y-17621929D01*
X10280845Y-17593357D01*
X10280845Y-17336214D01*
X10566559Y-17636214D02*
X10566559Y-17479072D01*
X10552274Y-17450500D01*
X10523702Y-17436214D01*
X10466559Y-17436214D01*
X10437988Y-17450500D01*
X10566559Y-17621929D02*
X10537988Y-17636214D01*
X10466559Y-17636214D01*
X10437988Y-17621929D01*
X10423702Y-17593357D01*
X10423702Y-17564786D01*
X10437988Y-17536214D01*
X10466559Y-17521929D01*
X10537988Y-17521929D01*
X10566559Y-17507643D01*
X10666559Y-17436214D02*
X10780845Y-17436214D01*
X10709416Y-17336214D02*
X10709416Y-17593357D01*
X10723702Y-17621929D01*
X10752274Y-17636214D01*
X10780845Y-17636214D01*
X10995131Y-17621929D02*
X10966559Y-17636214D01*
X10909416Y-17636214D01*
X10880845Y-17621929D01*
X10866559Y-17593357D01*
X10866559Y-17479072D01*
X10880845Y-17450500D01*
X10909416Y-17436214D01*
X10966559Y-17436214D01*
X10995131Y-17450500D01*
X11009416Y-17479072D01*
X11009416Y-17507643D01*
X10866559Y-17536214D01*
X11266559Y-17636214D02*
X11266559Y-17336214D01*
X11266559Y-17621929D02*
X11237988Y-17636214D01*
X11180845Y-17636214D01*
X11152274Y-17621929D01*
X11137988Y-17607643D01*
X11123702Y-17579072D01*
X11123702Y-17493357D01*
X11137988Y-17464786D01*
X11152274Y-17450500D01*
X11180845Y-17436214D01*
X11237988Y-17436214D01*
X11266559Y-17450500D01*
X11380845Y-17750500D02*
X11395131Y-17736214D01*
X11423702Y-17693357D01*
X11437988Y-17664786D01*
X11452274Y-17621929D01*
X11466559Y-17550500D01*
X11466559Y-17493357D01*
X11452274Y-17421929D01*
X11437988Y-17379072D01*
X11423702Y-17350500D01*
X11395131Y-17307643D01*
X11380845Y-17293357D01*
X1467274Y-18105500D02*
X1637274Y-17935500D01*
X1467274Y-17765500D01*
X1297274Y-17935500D01*
X1467274Y-18105500D01*
X1895131Y-17771214D02*
X2080845Y-17771214D01*
X1980845Y-17885500D01*
X2023702Y-17885500D01*
X2052274Y-17899786D01*
X2066559Y-17914072D01*
X2080845Y-17942643D01*
X2080845Y-18014072D01*
X2066559Y-18042643D01*
X2052274Y-18056929D01*
X2023702Y-18071214D01*
X1937988Y-18071214D01*
X1909416Y-18056929D01*
X1895131Y-18042643D01*
X2209416Y-18042643D02*
X2223702Y-18056929D01*
X2209416Y-18071214D01*
X2195131Y-18056929D01*
X2209416Y-18042643D01*
X2209416Y-18071214D01*
X2480845Y-17871214D02*
X2480845Y-18071214D01*
X2409416Y-17756929D02*
X2337988Y-17971214D01*
X2523702Y-17971214D01*
X2695131Y-17771214D02*
X2723702Y-17771214D01*
X2752274Y-17785500D01*
X2766559Y-17799786D01*
X2780845Y-17828357D01*
X2795131Y-17885500D01*
X2795131Y-17956929D01*
X2780845Y-18014072D01*
X2766559Y-18042643D01*
X2752274Y-18056929D01*
X2723702Y-18071214D01*
X2695131Y-18071214D01*
X2666559Y-18056929D01*
X2652274Y-18042643D01*
X2637988Y-18014072D01*
X2623702Y-17956929D01*
X2623702Y-17885500D01*
X2637988Y-17828357D01*
X2652274Y-17799786D01*
X2666559Y-17785500D01*
X2695131Y-17771214D01*
X2923702Y-18071214D02*
X2923702Y-17871214D01*
X2923702Y-17899786D02*
X2937988Y-17885500D01*
X2966559Y-17871214D01*
X3009416Y-17871214D01*
X3037988Y-17885500D01*
X3052274Y-17914072D01*
X3052274Y-18071214D01*
X3052274Y-17914072D02*
X3066559Y-17885500D01*
X3095131Y-17871214D01*
X3137988Y-17871214D01*
X3166559Y-17885500D01*
X3180845Y-17914072D01*
X3180845Y-18071214D01*
X3323702Y-18071214D02*
X3323702Y-17871214D01*
X3323702Y-17899786D02*
X3337988Y-17885500D01*
X3366559Y-17871214D01*
X3409416Y-17871214D01*
X3437988Y-17885500D01*
X3452274Y-17914072D01*
X3452274Y-18071214D01*
X3452274Y-17914072D02*
X3466559Y-17885500D01*
X3495131Y-17871214D01*
X3537988Y-17871214D01*
X3566559Y-17885500D01*
X3580845Y-17914072D01*
X3580845Y-18071214D01*
X4166559Y-17756929D02*
X3909416Y-18142643D01*
X4552274Y-17771214D02*
X4580845Y-17771214D01*
X4609416Y-17785500D01*
X4623702Y-17799786D01*
X4637988Y-17828357D01*
X4652274Y-17885500D01*
X4652274Y-17956929D01*
X4637988Y-18014072D01*
X4623702Y-18042643D01*
X4609416Y-18056929D01*
X4580845Y-18071214D01*
X4552274Y-18071214D01*
X4523702Y-18056929D01*
X4509416Y-18042643D01*
X4495131Y-18014072D01*
X4480845Y-17956929D01*
X4480845Y-17885500D01*
X4495131Y-17828357D01*
X4509416Y-17799786D01*
X4523702Y-17785500D01*
X4552274Y-17771214D01*
X4780845Y-18042643D02*
X4795131Y-18056929D01*
X4780845Y-18071214D01*
X4766559Y-18056929D01*
X4780845Y-18042643D01*
X4780845Y-18071214D01*
X5080845Y-18071214D02*
X4909416Y-18071214D01*
X4995131Y-18071214D02*
X4995131Y-17771214D01*
X4966559Y-17814072D01*
X4937988Y-17842643D01*
X4909416Y-17856929D01*
X5180845Y-17771214D02*
X5366559Y-17771214D01*
X5266559Y-17885500D01*
X5309416Y-17885500D01*
X5337988Y-17899786D01*
X5352274Y-17914072D01*
X5366559Y-17942643D01*
X5366559Y-18014072D01*
X5352274Y-18042643D01*
X5337988Y-18056929D01*
X5309416Y-18071214D01*
X5223702Y-18071214D01*
X5195131Y-18056929D01*
X5180845Y-18042643D01*
X5623702Y-17871214D02*
X5623702Y-18071214D01*
X5552274Y-17756929D02*
X5480845Y-17971214D01*
X5666559Y-17971214D01*
X5766559Y-17771214D02*
X5766559Y-17828357D01*
X5880845Y-17771214D02*
X5880845Y-17828357D01*
X6323702Y-18185500D02*
X6309416Y-18171214D01*
X6280845Y-18128357D01*
X6266559Y-18099786D01*
X6252273Y-18056929D01*
X6237988Y-17985500D01*
X6237988Y-17928357D01*
X6252273Y-17856929D01*
X6266559Y-17814072D01*
X6280845Y-17785500D01*
X6309416Y-17742643D01*
X6323702Y-17728357D01*
X6409416Y-17771214D02*
X6595131Y-17771214D01*
X6495131Y-17885500D01*
X6537988Y-17885500D01*
X6566559Y-17899786D01*
X6580845Y-17914072D01*
X6595131Y-17942643D01*
X6595131Y-18014072D01*
X6580845Y-18042643D01*
X6566559Y-18056929D01*
X6537988Y-18071214D01*
X6452273Y-18071214D01*
X6423702Y-18056929D01*
X6409416Y-18042643D01*
X6852274Y-17771214D02*
X6795131Y-17771214D01*
X6766559Y-17785500D01*
X6752274Y-17799786D01*
X6723702Y-17842643D01*
X6709416Y-17899786D01*
X6709416Y-18014072D01*
X6723702Y-18042643D01*
X6737988Y-18056929D01*
X6766559Y-18071214D01*
X6823702Y-18071214D01*
X6852274Y-18056929D01*
X6866559Y-18042643D01*
X6880845Y-18014072D01*
X6880845Y-17942643D01*
X6866559Y-17914072D01*
X6852274Y-17899786D01*
X6823702Y-17885500D01*
X6766559Y-17885500D01*
X6737988Y-17899786D01*
X6723702Y-17914072D01*
X6709416Y-17942643D01*
X7237988Y-18071214D02*
X7237988Y-17771214D01*
X7366559Y-18071214D02*
X7366559Y-17914072D01*
X7352274Y-17885500D01*
X7323702Y-17871214D01*
X7280845Y-17871214D01*
X7252274Y-17885500D01*
X7237988Y-17899786D01*
X7552274Y-18071214D02*
X7523702Y-18056929D01*
X7509416Y-18042643D01*
X7495131Y-18014072D01*
X7495131Y-17928357D01*
X7509416Y-17899786D01*
X7523702Y-17885500D01*
X7552274Y-17871214D01*
X7595131Y-17871214D01*
X7623702Y-17885500D01*
X7637988Y-17899786D01*
X7652274Y-17928357D01*
X7652274Y-18014072D01*
X7637988Y-18042643D01*
X7623702Y-18056929D01*
X7595131Y-18071214D01*
X7552274Y-18071214D01*
X7823702Y-18071214D02*
X7795131Y-18056929D01*
X7780845Y-18028357D01*
X7780845Y-17771214D01*
X8052274Y-18056929D02*
X8023702Y-18071214D01*
X7966559Y-18071214D01*
X7937988Y-18056929D01*
X7923702Y-18028357D01*
X7923702Y-17914072D01*
X7937988Y-17885500D01*
X7966559Y-17871214D01*
X8023702Y-17871214D01*
X8052274Y-17885500D01*
X8066559Y-17914072D01*
X8066559Y-17942643D01*
X7923702Y-17971214D01*
X8180845Y-18056929D02*
X8209416Y-18071214D01*
X8266559Y-18071214D01*
X8295131Y-18056929D01*
X8309416Y-18028357D01*
X8309416Y-18014072D01*
X8295131Y-17985500D01*
X8266559Y-17971214D01*
X8223702Y-17971214D01*
X8195131Y-17956929D01*
X8180845Y-17928357D01*
X8180845Y-17914072D01*
X8195131Y-17885500D01*
X8223702Y-17871214D01*
X8266559Y-17871214D01*
X8295131Y-17885500D01*
X8409416Y-18185500D02*
X8423702Y-18171214D01*
X8452274Y-18128357D01*
X8466559Y-18099786D01*
X8480845Y-18056929D01*
X8495131Y-17985500D01*
X8495131Y-17928357D01*
X8480845Y-17856929D01*
X8466559Y-17814072D01*
X8452274Y-17785500D01*
X8423702Y-17742643D01*
X8409416Y-17728357D01*
X8952274Y-18185500D02*
X8937988Y-18171214D01*
X8909416Y-18128357D01*
X8895131Y-18099786D01*
X8880845Y-18056929D01*
X8866559Y-17985500D01*
X8866559Y-17928357D01*
X8880845Y-17856929D01*
X8895131Y-17814072D01*
X8909416Y-17785500D01*
X8937988Y-17742643D01*
X8952274Y-17728357D01*
X9066559Y-17871214D02*
X9066559Y-18071214D01*
X9066559Y-17899786D02*
X9080845Y-17885500D01*
X9109416Y-17871214D01*
X9152274Y-17871214D01*
X9180845Y-17885500D01*
X9195131Y-17914072D01*
X9195131Y-18071214D01*
X9380845Y-18071214D02*
X9352274Y-18056929D01*
X9337988Y-18042643D01*
X9323702Y-18014072D01*
X9323702Y-17928357D01*
X9337988Y-17899786D01*
X9352274Y-17885500D01*
X9380845Y-17871214D01*
X9423702Y-17871214D01*
X9452274Y-17885500D01*
X9466559Y-17899786D01*
X9480845Y-17928357D01*
X9480845Y-18014072D01*
X9466559Y-18042643D01*
X9452274Y-18056929D01*
X9423702Y-18071214D01*
X9380845Y-18071214D01*
X9566559Y-17871214D02*
X9680845Y-17871214D01*
X9609416Y-17771214D02*
X9609416Y-18028357D01*
X9623702Y-18056929D01*
X9652274Y-18071214D01*
X9680845Y-18071214D01*
X10009416Y-17871214D02*
X10009416Y-18171214D01*
X10009416Y-17885500D02*
X10037988Y-17871214D01*
X10095131Y-17871214D01*
X10123702Y-17885500D01*
X10137988Y-17899786D01*
X10152274Y-17928357D01*
X10152274Y-18014072D01*
X10137988Y-18042643D01*
X10123702Y-18056929D01*
X10095131Y-18071214D01*
X10037988Y-18071214D01*
X10009416Y-18056929D01*
X10323702Y-18071214D02*
X10295131Y-18056929D01*
X10280845Y-18028357D01*
X10280845Y-17771214D01*
X10566559Y-18071214D02*
X10566559Y-17914072D01*
X10552274Y-17885500D01*
X10523702Y-17871214D01*
X10466559Y-17871214D01*
X10437988Y-17885500D01*
X10566559Y-18056929D02*
X10537988Y-18071214D01*
X10466559Y-18071214D01*
X10437988Y-18056929D01*
X10423702Y-18028357D01*
X10423702Y-17999786D01*
X10437988Y-17971214D01*
X10466559Y-17956929D01*
X10537988Y-17956929D01*
X10566559Y-17942643D01*
X10666559Y-17871214D02*
X10780845Y-17871214D01*
X10709416Y-17771214D02*
X10709416Y-18028357D01*
X10723702Y-18056929D01*
X10752274Y-18071214D01*
X10780845Y-18071214D01*
X10995131Y-18056929D02*
X10966559Y-18071214D01*
X10909416Y-18071214D01*
X10880845Y-18056929D01*
X10866559Y-18028357D01*
X10866559Y-17914072D01*
X10880845Y-17885500D01*
X10909416Y-17871214D01*
X10966559Y-17871214D01*
X10995131Y-17885500D01*
X11009416Y-17914072D01*
X11009416Y-17942643D01*
X10866559Y-17971214D01*
X11266559Y-18071214D02*
X11266559Y-17771214D01*
X11266559Y-18056929D02*
X11237988Y-18071214D01*
X11180845Y-18071214D01*
X11152274Y-18056929D01*
X11137988Y-18042643D01*
X11123702Y-18014072D01*
X11123702Y-17928357D01*
X11137988Y-17899786D01*
X11152274Y-17885500D01*
X11180845Y-17871214D01*
X11237988Y-17871214D01*
X11266559Y-17885500D01*
X11380845Y-18185500D02*
X11395131Y-18171214D01*
X11423702Y-18128357D01*
X11437988Y-18099786D01*
X11452274Y-18056929D01*
X11466559Y-17985500D01*
X11466559Y-17928357D01*
X11452274Y-17856929D01*
X11437988Y-17814072D01*
X11423702Y-17785500D01*
X11395131Y-17742643D01*
X11380845Y-17728357D01*
M02*
