M48
; DRILL file {KiCad 5.1.9+dfsg1-1+deb11u1} date Mon Oct  7 21:36:37 2024
; FORMAT={-:-/ absolute / metric / decimal}
; #@! TF.CreationDate,2024-10-07T21:36:37-04:00
; #@! TF.GenerationSoftware,Kicad,Pcbnew,5.1.9+dfsg1-1+deb11u1
; #@! TF.FileFunction,Plated,1,2,PTH
FMAT,2
METRIC
T1C0.400
T2C0.800
T3C1.100
%
G90
G05
T1
X29.3Y-70.9
X44.0Y-80.9
X44.0Y-88.9
X44.1Y-63.3
X44.1Y-71.9
X44.4Y-97.4
X49.1Y-71.7
X53.4Y-106.1
X53.6Y-70.6
X62.0Y-55.4
X62.0Y-64.4
X62.0Y-73.2
X62.0Y-80.9
X62.0Y-88.4
X64.8Y-98.6
X80.1Y-62.8
X80.1Y-79.3
X80.2Y-71.8
X80.2Y-87.7
X80.2Y-105.6
X88.4Y-115.4
X92.0Y-114.4
X97.9Y-82.5
X97.9Y-90.0
X98.1Y-64.3
X98.1Y-73.0
X101.6Y-89.7
X102.6Y-98.5
X104.0Y-78.7
X105.4Y-90.225
X106.212Y-90.95
X113.8Y-98.2
X115.8Y-130.9
X116.3Y-91.2
X117.0Y-111.4
X117.6Y-112.3
X118.8Y-83.0
X121.972Y-79.772
X125.4Y-98.6
X167.1Y-81.5
X167.1Y-86.9
X172.341Y-85.825
X172.8Y-90.0
X173.1Y-85.1
X176.3Y-107.8
X176.4Y-102.8
X177.9Y-85.825
X178.5Y-90.0
X178.9Y-85.1
X185.0Y-103.6
X185.693Y-90.607
X186.4Y-89.9
X186.5Y-97.9
X189.0Y-63.1
X189.0Y-81.8
X189.0Y-89.9
X189.1Y-74.0
X189.8Y-103.5
X191.7Y-107.9
X192.0Y-115.7
X193.55Y-69.563
X196.232Y-61.132
X197.0Y-65.4
X197.1Y-88.8
X199.4Y-86.3
X199.7Y-105.8
X204.9Y-122.2
X206.2Y-62.1
X207.0Y-61.2
X207.0Y-71.3
X207.1Y-79.6
X207.1Y-88.8
X207.3Y-99.1
X207.6Y-104.3
X212.8Y-87.6
X212.9Y-104.5
X213.7Y-92.9
X217.1Y-100.4
X217.2Y-85.7
X225.0Y-64.6
X225.0Y-72.3
X225.0Y-82.2
X225.1Y-54.9
X230.3Y-81.6
X234.0Y-94.0
X234.2Y-81.6
X243.1Y-63.0
X243.1Y-73.0
X243.1Y-80.6
X243.1Y-89.2
X252.5Y-105.1
X261.6Y-79.5
X262.5Y-101.1
X262.6Y-91.9
X264.853Y-80.7
T2
X120.5Y-100.0
X120.5Y-102.0
X123.04Y-101.0
X123.04Y-103.0
X170.96Y-111.0
X170.96Y-113.0
X173.5Y-112.0
X173.5Y-114.0
T3
X113.88Y-66.03
X113.88Y-68.57
X113.88Y-71.11
X113.88Y-73.65
X113.88Y-76.19
X113.88Y-78.73
X113.88Y-81.27
X113.88Y-83.81
X113.88Y-86.35
X113.88Y-88.89
X113.88Y-91.43
X113.88Y-93.97
X129.12Y-66.03
X129.12Y-68.57
X129.12Y-71.11
X129.12Y-73.65
X129.12Y-76.19
X129.12Y-78.73
X129.12Y-81.27
X129.12Y-83.81
X129.12Y-86.35
X129.12Y-88.89
X129.12Y-91.43
X129.12Y-93.97
X164.88Y-66.03
X164.88Y-68.57
X164.88Y-71.11
X164.88Y-73.65
X164.88Y-76.19
X164.88Y-78.73
X164.88Y-81.27
X164.88Y-83.81
X164.88Y-86.35
X164.88Y-88.89
X164.88Y-91.43
X164.88Y-93.97
X180.12Y-66.03
X180.12Y-68.57
X180.12Y-71.11
X180.12Y-73.65
X180.12Y-76.19
X180.12Y-78.73
X180.12Y-81.27
X180.12Y-83.81
X180.12Y-86.35
X180.12Y-88.89
X180.12Y-91.43
X180.12Y-93.97
T0
M30
