M48
; DRILL file {KiCad 5.1.9+dfsg1-1+deb11u1} date Mon Oct  7 21:36:37 2024
; FORMAT={-:-/ absolute / metric / decimal}
; #@! TF.CreationDate,2024-10-07T21:36:37-04:00
; #@! TF.GenerationSoftware,Kicad,Pcbnew,5.1.9+dfsg1-1+deb11u1
; #@! TF.FileFunction,NonPlated,1,2,NPTH
FMAT,2
METRIC
T1C1.300
T2C1.900
T3C2.400
T4C3.050
T5C3.400
%
G90
G05
T1
X21.982Y-82.791
X23.464Y-99.726
X24.945Y-116.662
X42.28Y-70.2
X42.28Y-87.2
X42.28Y-104.2
X60.28Y-62.2
X60.28Y-79.2
X60.28Y-96.2
X78.28Y-69.2
X78.28Y-86.2
X78.28Y-103.2
X88.371Y-121.706
X96.28Y-71.2
X96.28Y-88.2
X96.28Y-105.2
X106.879Y-128.027
X123.339Y-138.779
X163.279Y-146.161
X178.079Y-133.247
X187.28Y-71.2
X187.28Y-88.2
X187.28Y-105.2
X195.545Y-124.408
X205.28Y-69.2
X205.28Y-86.2
X205.28Y-103.2
X223.28Y-62.2
X223.28Y-79.2
X223.28Y-96.2
X241.28Y-70.2
X241.28Y-87.2
X241.28Y-104.2
X258.562Y-115.577
X260.043Y-98.642
X261.525Y-81.707
T2
X21.337Y-78.631
X22.819Y-95.567
X24.3Y-112.502
X32.295Y-77.673
X33.777Y-94.608
X35.259Y-111.543
X42.0Y-66.0
X42.0Y-83.0
X42.0Y-100.0
X53.0Y-66.0
X53.0Y-83.0
X53.0Y-100.0
X60.0Y-58.0
X60.0Y-75.0
X60.0Y-92.0
X71.0Y-58.0
X71.0Y-75.0
X71.0Y-92.0
X78.0Y-65.0
X78.0Y-82.0
X78.0Y-99.0
X89.0Y-65.0
X89.0Y-82.0
X89.0Y-99.0
X89.187Y-117.576
X96.0Y-67.0
X96.0Y-84.0
X96.0Y-101.0
X99.813Y-120.424
X107.0Y-67.0
X107.0Y-84.0
X107.0Y-101.0
X108.737Y-124.25
X118.263Y-129.75
X126.111Y-135.611
X133.889Y-143.389
X160.111Y-143.389
X167.889Y-135.611
X175.737Y-129.75
X185.263Y-124.25
X187.0Y-67.0
X187.0Y-84.0
X187.0Y-101.0
X194.187Y-120.424
X198.0Y-67.0
X198.0Y-84.0
X198.0Y-101.0
X204.813Y-117.576
X205.0Y-65.0
X205.0Y-82.0
X205.0Y-99.0
X216.0Y-65.0
X216.0Y-82.0
X216.0Y-99.0
X223.0Y-58.0
X223.0Y-75.0
X223.0Y-92.0
X234.0Y-58.0
X234.0Y-75.0
X234.0Y-92.0
X241.0Y-66.0
X241.0Y-83.0
X241.0Y-100.0
X252.0Y-66.0
X252.0Y-83.0
X252.0Y-100.0
X258.649Y-111.369
X260.131Y-94.434
X261.612Y-77.498
X269.607Y-112.328
X271.089Y-95.392
X272.57Y-78.457
T3
X121.54Y-116.0
X122.54Y-98.0
X171.46Y-116.0
X172.46Y-98.0
T4
X26.302Y-72.275
X27.784Y-89.21
X29.265Y-106.145
X31.466Y-73.931
X32.948Y-90.866
X34.429Y-107.801
X47.5Y-60.1
X47.5Y-77.1
X47.5Y-94.1
X52.5Y-62.2
X52.5Y-79.2
X52.5Y-96.2
X65.5Y-52.1
X65.5Y-69.1
X65.5Y-86.1
X70.5Y-54.2
X70.5Y-71.2
X70.5Y-88.2
X83.5Y-59.1
X83.5Y-76.1
X83.5Y-93.1
X88.5Y-61.2
X88.5Y-78.2
X88.5Y-95.2
X96.027Y-113.301
X100.313Y-116.624
X101.5Y-61.1
X101.5Y-78.1
X101.5Y-95.1
X106.5Y-63.2
X106.5Y-80.2
X106.5Y-97.2
X116.45Y-121.89
X119.73Y-126.209
X134.172Y-135.328
X136.223Y-140.349
X159.828Y-135.328
X164.849Y-133.277
X177.55Y-121.89
X182.93Y-121.209
X192.5Y-61.1
X192.5Y-78.1
X192.5Y-95.1
X197.5Y-63.2
X197.5Y-80.2
X197.5Y-97.2
X197.973Y-113.301
X203.346Y-114.035
X210.5Y-59.1
X210.5Y-76.1
X210.5Y-93.1
X215.5Y-61.2
X215.5Y-78.2
X215.5Y-95.2
X228.5Y-52.1
X228.5Y-69.1
X228.5Y-86.1
X233.5Y-54.2
X233.5Y-71.2
X233.5Y-88.2
X246.5Y-60.1
X246.5Y-77.1
X246.5Y-94.1
X251.5Y-62.2
X251.5Y-79.2
X251.5Y-96.2
X264.642Y-105.971
X266.124Y-89.036
X267.606Y-72.1
X269.44Y-108.499
X270.922Y-91.563
X272.404Y-74.628
T5
X26.816Y-78.152
X28.298Y-95.087
X29.78Y-112.023
X47.5Y-66.0
X47.5Y-83.0
X47.5Y-100.0
X65.5Y-58.0
X65.5Y-75.0
X65.5Y-92.0
X83.5Y-65.0
X83.5Y-82.0
X83.5Y-99.0
X94.5Y-119.0
X101.5Y-67.0
X101.5Y-84.0
X101.5Y-101.0
X113.5Y-127.0
X130.0Y-139.5
X164.0Y-139.5
X180.5Y-127.0
X192.5Y-67.0
X192.5Y-84.0
X192.5Y-101.0
X199.5Y-119.0
X210.5Y-65.0
X210.5Y-82.0
X210.5Y-99.0
X228.5Y-58.0
X228.5Y-75.0
X228.5Y-92.0
X246.5Y-66.0
X246.5Y-83.0
X246.5Y-100.0
X264.128Y-111.848
X265.61Y-94.913
X267.091Y-77.978
T0
M30
